<svg width="44" height="45" viewBox="0 0 44 45" fill="none" xmlns="http://www.w3.org/2000/svg">
<path d="M42.5 22.5C42.5 34.1299 33.2902 43.5 22 43.5C10.7098 43.5 1.5 34.1299 1.5 22.5C1.5 10.8701 10.7098 1.5 22 1.5C33.2902 1.5 42.5 10.8701 42.5 22.5Z" stroke="black" stroke-width="3"/>
<path d="M17.4648 26.4844H11.3008L10.1289 30H6.39062L12.7422 12.9375H16L22.3867 30H18.6484L17.4648 26.4844ZM12.25 23.6367H16.5156L14.3711 17.25L12.25 23.6367ZM29.3242 23.1562L27.4961 25.125V30H23.9805V12.9375H27.4961V20.6719L29.043 18.5508L33.3906 12.9375H37.7148L31.6562 20.5195L37.8906 30H33.707L29.3242 23.1562Z" fill="black"/>
</svg>
