<svg width="44" height="45" viewBox="0 0 44 45" fill="none" xmlns="http://www.w3.org/2000/svg">
<path d="M42.5 22.5C42.5 34.1299 33.2902 43.5 22 43.5C10.7098 43.5 1.5 34.1299 1.5 22.5C1.5 10.8701 10.7098 1.5 22 1.5C33.2902 1.5 42.5 10.8701 42.5 22.5Z" stroke="black" stroke-width="3"/>
<path d="M17.8047 26.4844H11.6406L10.4688 30H6.73047L13.082 12.9375H16.3398L22.7266 30H18.9883L17.8047 26.4844ZM12.5898 23.6367H16.8555L14.7109 17.25L12.5898 23.6367ZM28.0469 27.1758H36.6484V30H23.6523V27.9375L32.0898 15.7852H23.6641V12.9375H36.4609V14.9531L28.0469 27.1758Z" fill="black"/>
</svg>
