<svg width="44" height="45" viewBox="0 0 44 45" fill="none" xmlns="http://www.w3.org/2000/svg">
<path d="M42.5 22.5C42.5 34.1299 33.2902 43.5 22 43.5C10.7098 43.5 1.5 34.1299 1.5 22.5C1.5 10.8701 10.7098 1.5 22 1.5C33.2902 1.5 42.5 10.8701 42.5 22.5Z" stroke="black" stroke-width="3"/>
<path d="M17.418 26.4844H11.2539L10.082 30H6.34375L12.6953 12.9375H15.9531L22.3398 30H18.6016L17.418 26.4844ZM12.2031 23.6367H16.4688L14.3242 17.25L12.2031 23.6367ZM30.25 23.7539H27.4492V30H23.9336V12.9375H30.2734C32.2891 12.9375 33.8438 13.3867 34.9375 14.2852C36.0312 15.1836 36.5781 16.4531 36.5781 18.0938C36.5781 19.2578 36.3242 20.2305 35.8164 21.0117C35.3164 21.7852 34.5547 22.4023 33.5312 22.8633L37.2227 29.8359V30H33.4492L30.25 23.7539ZM27.4492 20.9062H30.2852C31.168 20.9062 31.8516 20.6836 32.3359 20.2383C32.8203 19.7852 33.0625 19.1641 33.0625 18.375C33.0625 17.5703 32.832 16.9375 32.3711 16.4766C31.918 16.0156 31.2188 15.7852 30.2734 15.7852H27.4492V20.9062Z" fill="black"/>
</svg>
