<svg width="44" height="45" viewBox="0 0 44 45" fill="none" xmlns="http://www.w3.org/2000/svg">
<path d="M42.5 22.5C42.5 34.1299 33.2902 43.5 22 43.5C10.7098 43.5 1.5 34.1299 1.5 22.5C1.5 10.8701 10.7098 1.5 22 1.5C33.2902 1.5 42.5 10.8701 42.5 22.5Z" stroke="black" stroke-width="3"/>
<path d="M15.8594 30V12.9375H21.8359C23.9062 12.9375 25.4766 13.3359 26.5469 14.1328C27.6172 14.9219 28.1523 16.082 28.1523 17.6133C28.1523 18.4492 27.9375 19.1875 27.5078 19.8281C27.0781 20.4609 26.4805 20.9258 25.7148 21.2227C26.5898 21.4414 27.2773 21.8828 27.7773 22.5469C28.2852 23.2109 28.5391 24.0234 28.5391 24.9844C28.5391 26.625 28.0156 27.8672 26.9688 28.7109C25.9219 29.5547 24.4297 29.9844 22.4922 30H15.8594ZM19.375 22.5703V27.1758H22.3867C23.2148 27.1758 23.8594 26.9805 24.3203 26.5898C24.7891 26.1914 25.0234 25.6445 25.0234 24.9492C25.0234 23.3867 24.2148 22.5938 22.5977 22.5703H19.375ZM19.375 20.0859H21.9766C23.75 20.0547 24.6367 19.3477 24.6367 17.9648C24.6367 17.1914 24.4102 16.6367 23.957 16.3008C23.5117 15.957 22.8047 15.7852 21.8359 15.7852H19.375V20.0859Z" fill="black"/>
</svg>
