<svg width="44" height="45" viewBox="0 0 44 45" fill="none" xmlns="http://www.w3.org/2000/svg">
<path d="M42.5 22.5C42.5 34.1299 33.2902 43.5 22 43.5C10.7098 43.5 1.5 34.1299 1.5 22.5C1.5 10.8701 10.7098 1.5 22 1.5C33.2902 1.5 42.5 10.8701 42.5 22.5Z" stroke="black" stroke-width="3"/>
<path d="M20.9922 25.3164C20.8594 27.1523 20.1797 28.5977 18.9531 29.6523C17.7344 30.707 16.125 31.2344 14.125 31.2344C11.9375 31.2344 10.2148 30.5 8.95703 29.0312C7.70703 27.5547 7.08203 25.5312 7.08203 22.9609V21.918C7.08203 20.2773 7.37109 18.832 7.94922 17.582C8.52734 16.332 9.35156 15.375 10.4219 14.7109C11.5 14.0391 12.75 13.7031 14.1719 13.7031C16.1406 13.7031 17.7266 14.2305 18.9297 15.2852C20.1328 16.3398 20.8281 17.8203 21.0156 19.7266H17.5C17.4141 18.625 17.1055 17.8281 16.5742 17.3359C16.0508 16.8359 15.25 16.5859 14.1719 16.5859C13 16.5859 12.1211 17.0078 11.5352 17.8516C10.957 18.6875 10.6602 19.9883 10.6445 21.7539V23.043C10.6445 24.8867 10.9219 26.2344 11.4766 27.0859C12.0391 27.9375 12.9219 28.3633 14.125 28.3633C15.2109 28.3633 16.0195 28.1172 16.5508 27.625C17.0898 27.125 17.3984 26.3555 17.4766 25.3164H20.9922ZM32.9336 27.4844H26.7695L25.5977 31H21.8594L28.2109 13.9375H31.4688L37.8555 31H34.1172L32.9336 27.4844ZM27.7188 24.6367H31.9844L29.8398 18.25L27.7188 24.6367Z" fill="black"/>
</svg>
