<svg width="198" height="132" viewBox="0 0 132 88" fill="none" xmlns="http://www.w3.org/2000/svg">
<line x1="7" y1="1.5" x2="125" y2="1.5" stroke="black" stroke-width="3"/>
<line x1="7" y1="86.5" x2="125" y2="86.5" stroke="black" stroke-width="3"/>
<line x1="1.5" y1="4" x2="1.5" y2="83" stroke="black" stroke-width="3"/>
<line x1="130.5" y1="4" x2="130.5" y2="83" stroke="black" stroke-width="3"/>
<path d="M24.918 30.3164C24.7852 32.1523 24.1055 33.5977 22.8789 34.6523C21.6602 35.707 20.0508 36.2344 18.0508 36.2344C15.8633 36.2344 14.1406 35.5 12.8828 34.0312C11.6328 32.5547 11.0078 30.5312 11.0078 27.9609V26.918C11.0078 25.2773 11.2969 23.832 11.875 22.582C12.4531 21.332 13.2773 20.375 14.3477 19.7109C15.4258 19.0391 16.6758 18.7031 18.0977 18.7031C20.0664 18.7031 21.6523 19.2305 22.8555 20.2852C24.0586 21.3398 24.7539 22.8203 24.9414 24.7266H21.4258C21.3398 23.625 21.0312 22.8281 20.5 22.3359C19.9766 21.8359 19.1758 21.5859 18.0977 21.5859C16.9258 21.5859 16.0469 22.0078 15.4609 22.8516C14.8828 23.6875 14.5859 24.9883 14.5703 26.7539V28.043C14.5703 29.8867 14.8477 31.2344 15.4023 32.0859C15.9648 32.9375 16.8477 33.3633 18.0508 33.3633C19.1367 33.3633 19.9453 33.1172 20.4766 32.625C21.0156 32.125 21.3242 31.3555 21.4023 30.3164H24.918ZM30.3086 24.7031C31.207 23.625 32.3359 23.0859 33.6953 23.0859C36.4453 23.0859 37.8398 24.6836 37.8789 27.8789V36H34.4922V27.9727C34.4922 27.2461 34.3359 26.7109 34.0234 26.3672C33.7109 26.0156 33.1914 25.8398 32.4648 25.8398C31.4727 25.8398 30.7539 26.2227 30.3086 26.9883V36H26.9219V18H30.3086V24.7031ZM39.9062 29.543C39.9062 28.2852 40.1484 27.1641 40.6328 26.1797C41.1172 25.1953 41.8125 24.4336 42.7188 23.8945C43.6328 23.3555 44.6914 23.0859 45.8945 23.0859C47.6055 23.0859 49 23.6094 50.0781 24.6562C51.1641 25.7031 51.7695 27.125 51.8945 28.9219L51.918 29.7891C51.918 31.7344 51.375 33.2969 50.2891 34.4766C49.2031 35.6484 47.7461 36.2344 45.918 36.2344C44.0898 36.2344 42.6289 35.6484 41.5352 34.4766C40.4492 33.3047 39.9062 31.7109 39.9062 29.6953V29.543ZM43.293 29.7891C43.293 30.9922 43.5195 31.9141 43.9727 32.5547C44.4258 33.1875 45.0742 33.5039 45.918 33.5039C46.7383 33.5039 47.3789 33.1914 47.8398 32.5664C48.3008 31.9336 48.5312 30.9258 48.5312 29.543C48.5312 28.3633 48.3008 27.4492 47.8398 26.8008C47.3789 26.1523 46.7305 25.8281 45.8945 25.8281C45.0664 25.8281 44.4258 26.1523 43.9727 26.8008C43.5195 27.4414 43.293 28.4375 43.293 29.7891ZM53.4766 29.543C53.4766 28.2852 53.7188 27.1641 54.2031 26.1797C54.6875 25.1953 55.3828 24.4336 56.2891 23.8945C57.2031 23.3555 58.2617 23.0859 59.4648 23.0859C61.1758 23.0859 62.5703 23.6094 63.6484 24.6562C64.7344 25.7031 65.3398 27.125 65.4648 28.9219L65.4883 29.7891C65.4883 31.7344 64.9453 33.2969 63.8594 34.4766C62.7734 35.6484 61.3164 36.2344 59.4883 36.2344C57.6602 36.2344 56.1992 35.6484 55.1055 34.4766C54.0195 33.3047 53.4766 31.7109 53.4766 29.6953V29.543ZM56.8633 29.7891C56.8633 30.9922 57.0898 31.9141 57.543 32.5547C57.9961 33.1875 58.6445 33.5039 59.4883 33.5039C60.3086 33.5039 60.9492 33.1914 61.4102 32.5664C61.8711 31.9336 62.1016 30.9258 62.1016 29.543C62.1016 28.3633 61.8711 27.4492 61.4102 26.8008C60.9492 26.1523 60.3008 25.8281 59.4648 25.8281C58.6367 25.8281 57.9961 26.1523 57.543 26.8008C57.0898 27.4414 56.8633 28.4375 56.8633 29.7891ZM74.4414 32.4961C74.4414 32.082 74.2344 31.7578 73.8203 31.5234C73.4141 31.2812 72.7578 31.0664 71.8516 30.8789C68.8359 30.2461 67.3281 28.9648 67.3281 27.0352C67.3281 25.9102 67.793 24.9727 68.7227 24.2227C69.6602 23.4648 70.8828 23.0859 72.3906 23.0859C74 23.0859 75.2852 23.4648 76.2461 24.2227C77.2148 24.9805 77.6992 25.9648 77.6992 27.1758H74.3125C74.3125 26.6914 74.1562 26.293 73.8438 25.9805C73.5312 25.6602 73.043 25.5 72.3789 25.5C71.8086 25.5 71.3672 25.6289 71.0547 25.8867C70.7422 26.1445 70.5859 26.4727 70.5859 26.8711C70.5859 27.2461 70.7617 27.5508 71.1133 27.7852C71.4727 28.0117 72.0742 28.2109 72.918 28.3828C73.7617 28.5469 74.4727 28.7344 75.0508 28.9453C76.8398 29.6016 77.7344 30.7383 77.7344 32.3555C77.7344 33.5117 77.2383 34.4492 76.2461 35.168C75.2539 35.8789 73.9727 36.2344 72.4023 36.2344C71.3398 36.2344 70.3945 36.0469 69.5664 35.6719C68.7461 35.2891 68.1016 34.7695 67.6328 34.1133C67.1641 33.4492 66.9297 32.7344 66.9297 31.9688H70.1406C70.1719 32.5703 70.3945 33.0312 70.8086 33.3516C71.2227 33.6719 71.7773 33.832 72.4727 33.832C73.1211 33.832 73.6094 33.7109 73.9375 33.4688C74.2734 33.2188 74.4414 32.8945 74.4414 32.4961ZM85.7617 36.2344C83.9023 36.2344 82.3867 35.6641 81.2148 34.5234C80.0508 33.3828 79.4688 31.8633 79.4688 29.9648V29.6367C79.4688 28.3633 79.7148 27.2266 80.207 26.2266C80.6992 25.2188 81.3945 24.4453 82.293 23.9062C83.1992 23.3594 84.2305 23.0859 85.3867 23.0859C87.1211 23.0859 88.4844 23.6328 89.4766 24.7266C90.4766 25.8203 90.9766 27.3711 90.9766 29.3789V30.7617H82.9023C83.0117 31.5898 83.3398 32.2539 83.8867 32.7539C84.4414 33.2539 85.1406 33.5039 85.9844 33.5039C87.2891 33.5039 88.3086 33.0312 89.043 32.0859L90.707 33.9492C90.1992 34.668 89.5117 35.2305 88.6445 35.6367C87.7773 36.0352 86.8164 36.2344 85.7617 36.2344ZM85.375 25.8281C84.7031 25.8281 84.1562 26.0547 83.7344 26.5078C83.3203 26.9609 83.0547 27.6094 82.9375 28.4531H87.6484V28.1836C87.6328 27.4336 87.4297 26.8555 87.0391 26.4492C86.6484 26.0352 86.0938 25.8281 85.375 25.8281ZM106.234 36C106.078 35.6953 105.965 35.3164 105.895 34.8633C105.074 35.7773 104.008 36.2344 102.695 36.2344C101.453 36.2344 100.422 35.875 99.6016 35.1562C98.7891 34.4375 98.3828 33.5312 98.3828 32.4375C98.3828 31.0938 98.8789 30.0625 99.8711 29.3438C100.871 28.625 102.312 28.2617 104.195 28.2539H105.754V27.5273C105.754 26.9414 105.602 26.4727 105.297 26.1211C105 25.7695 104.527 25.5938 103.879 25.5938C103.309 25.5938 102.859 25.7305 102.531 26.0039C102.211 26.2773 102.051 26.6523 102.051 27.1289H98.6641C98.6641 26.3945 98.8906 25.7148 99.3438 25.0898C99.7969 24.4648 100.438 23.9766 101.266 23.625C102.094 23.2656 103.023 23.0859 104.055 23.0859C105.617 23.0859 106.855 23.4805 107.77 24.2695C108.691 25.0508 109.152 26.1523 109.152 27.5742V33.0703C109.16 34.2734 109.328 35.1836 109.656 35.8008V36H106.234ZM103.434 33.6445C103.934 33.6445 104.395 33.5352 104.816 33.3164C105.238 33.0898 105.551 32.7891 105.754 32.4141V30.2344H104.488C102.793 30.2344 101.891 30.8203 101.781 31.9922L101.77 32.1914C101.77 32.6133 101.918 32.9609 102.215 33.2344C102.512 33.5078 102.918 33.6445 103.434 33.6445ZM16.5742 61.5039C17.1992 61.5039 17.707 61.332 18.0977 60.9883C18.4883 60.6445 18.6914 60.1875 18.707 59.6172H21.8828C21.875 60.4766 21.6406 61.2656 21.1797 61.9844C20.7188 62.6953 20.0859 63.25 19.2812 63.6484C18.4844 64.0391 17.6016 64.2344 16.6328 64.2344C14.8203 64.2344 13.3906 63.6602 12.3438 62.5117C11.2969 61.3555 10.7734 59.7617 10.7734 57.7305V57.5078C10.7734 55.5547 11.293 53.9961 12.332 52.832C13.3711 51.668 14.7969 51.0859 16.6094 51.0859C18.1953 51.0859 19.4648 51.5391 20.418 52.4453C21.3789 53.3438 21.8672 54.543 21.8828 56.043H18.707C18.6914 55.3867 18.4883 54.8555 18.0977 54.4492C17.707 54.0352 17.1914 53.8281 16.5508 53.8281C15.7617 53.8281 15.1641 54.1172 14.7578 54.6953C14.3594 55.2656 14.1602 56.1953 14.1602 57.4844V57.8359C14.1602 59.1406 14.3594 60.0781 14.7578 60.6484C15.1562 61.2188 15.7617 61.5039 16.5742 61.5039ZM31.1641 64C31.0078 63.6953 30.8945 63.3164 30.8242 62.8633C30.0039 63.7773 28.9375 64.2344 27.625 64.2344C26.3828 64.2344 25.3516 63.875 24.5312 63.1562C23.7188 62.4375 23.3125 61.5312 23.3125 60.4375C23.3125 59.0938 23.8086 58.0625 24.8008 57.3438C25.8008 56.625 27.2422 56.2617 29.125 56.2539H30.6836V55.5273C30.6836 54.9414 30.5312 54.4727 30.2266 54.1211C29.9297 53.7695 29.457 53.5938 28.8086 53.5938C28.2383 53.5938 27.7891 53.7305 27.4609 54.0039C27.1406 54.2773 26.9805 54.6523 26.9805 55.1289H23.5938C23.5938 54.3945 23.8203 53.7148 24.2734 53.0898C24.7266 52.4648 25.3672 51.9766 26.1953 51.625C27.0234 51.2656 27.9531 51.0859 28.9844 51.0859C30.5469 51.0859 31.7852 51.4805 32.6992 52.2695C33.6211 53.0508 34.082 54.1523 34.082 55.5742V61.0703C34.0898 62.2734 34.2578 63.1836 34.5859 63.8008V64H31.1641ZM28.3633 61.6445C28.8633 61.6445 29.3242 61.5352 29.7461 61.3164C30.168 61.0898 30.4805 60.7891 30.6836 60.4141V58.2344H29.418C27.7227 58.2344 26.8203 58.8203 26.7109 59.9922L26.6992 60.1914C26.6992 60.6133 26.8477 60.9609 27.1445 61.2344C27.4414 61.5078 27.8477 61.6445 28.3633 61.6445ZM40.7383 48.2031V51.3203H42.9062V53.8047H40.7383V60.1328C40.7383 60.6016 40.8281 60.9375 41.0078 61.1406C41.1875 61.3438 41.5312 61.4453 42.0391 61.4453C42.4141 61.4453 42.7461 61.418 43.0352 61.3633V63.9297C42.3711 64.1328 41.6875 64.2344 40.9844 64.2344C38.6094 64.2344 37.3984 63.0352 37.3516 60.6367V53.8047H35.5V51.3203H37.3516V48.2031H40.7383ZM50.6289 64.2344C48.7695 64.2344 47.2539 63.6641 46.082 62.5234C44.918 61.3828 44.3359 59.8633 44.3359 57.9648V57.6367C44.3359 56.3633 44.582 55.2266 45.0742 54.2266C45.5664 53.2188 46.2617 52.4453 47.1602 51.9062C48.0664 51.3594 49.0977 51.0859 50.2539 51.0859C51.9883 51.0859 53.3516 51.6328 54.3438 52.7266C55.3438 53.8203 55.8438 55.3711 55.8438 57.3789V58.7617H47.7695C47.8789 59.5898 48.207 60.2539 48.7539 60.7539C49.3086 61.2539 50.0078 61.5039 50.8516 61.5039C52.1562 61.5039 53.1758 61.0312 53.9102 60.0859L55.5742 61.9492C55.0664 62.668 54.3789 63.2305 53.5117 63.6367C52.6445 64.0352 51.6836 64.2344 50.6289 64.2344ZM50.2422 53.8281C49.5703 53.8281 49.0234 54.0547 48.6016 54.5078C48.1875 54.9609 47.9219 55.6094 47.8047 56.4531H52.5156V56.1836C52.5 55.4336 52.2969 54.8555 51.9062 54.4492C51.5156 54.0352 50.9609 53.8281 50.2422 53.8281ZM57.2852 57.5664C57.2852 55.6211 57.7461 54.0547 58.668 52.8672C59.5977 51.6797 60.8477 51.0859 62.418 51.0859C63.8086 51.0859 64.8906 51.5625 65.6641 52.5156L65.8047 51.3203H68.875V63.5781C68.875 64.6875 68.6211 65.6523 68.1133 66.4727C67.6133 67.293 66.9062 67.918 65.9922 68.3477C65.0781 68.7773 64.0078 68.9922 62.7812 68.9922C61.8516 68.9922 60.9453 68.8047 60.0625 68.4297C59.1797 68.0625 58.5117 67.5859 58.0586 67L59.5586 64.9375C60.4023 65.8828 61.4258 66.3555 62.6289 66.3555C63.5273 66.3555 64.2266 66.1133 64.7266 65.6289C65.2266 65.1523 65.4766 64.4727 65.4766 63.5898V62.9102C64.6953 63.793 63.668 64.2344 62.3945 64.2344C60.8711 64.2344 59.6367 63.6406 58.6914 62.4531C57.7539 61.2578 57.2852 59.6758 57.2852 57.707V57.5664ZM60.6719 57.8125C60.6719 58.9609 60.9023 59.8633 61.3633 60.5195C61.8242 61.168 62.457 61.4922 63.2617 61.4922C64.293 61.4922 65.0312 61.1055 65.4766 60.332V55C65.0234 54.2266 64.293 53.8398 63.2852 53.8398C62.4727 53.8398 61.832 54.1719 61.3633 54.8359C60.9023 55.5 60.6719 56.4922 60.6719 57.8125ZM70.9609 57.543C70.9609 56.2852 71.2031 55.1641 71.6875 54.1797C72.1719 53.1953 72.8672 52.4336 73.7734 51.8945C74.6875 51.3555 75.7461 51.0859 76.9492 51.0859C78.6602 51.0859 80.0547 51.6094 81.1328 52.6562C82.2188 53.7031 82.8242 55.125 82.9492 56.9219L82.9727 57.7891C82.9727 59.7344 82.4297 61.2969 81.3438 62.4766C80.2578 63.6484 78.8008 64.2344 76.9727 64.2344C75.1445 64.2344 73.6836 63.6484 72.5898 62.4766C71.5039 61.3047 70.9609 59.7109 70.9609 57.6953V57.543ZM74.3477 57.7891C74.3477 58.9922 74.5742 59.9141 75.0273 60.5547C75.4805 61.1875 76.1289 61.5039 76.9727 61.5039C77.793 61.5039 78.4336 61.1914 78.8945 60.5664C79.3555 59.9336 79.5859 58.9258 79.5859 57.543C79.5859 56.3633 79.3555 55.4492 78.8945 54.8008C78.4336 54.1523 77.7852 53.8281 76.9492 53.8281C76.1211 53.8281 75.4805 54.1523 75.0273 54.8008C74.5742 55.4414 74.3477 56.4375 74.3477 57.7891ZM92.1836 54.4961C91.7227 54.4336 91.3164 54.4023 90.9648 54.4023C89.6836 54.4023 88.8438 54.8359 88.4453 55.7031V64H85.0586V51.3203H88.2578L88.3516 52.832C89.0312 51.668 89.9727 51.0859 91.1758 51.0859C91.5508 51.0859 91.9023 51.1367 92.2305 51.2383L92.1836 54.4961ZM98.7695 59.207L101.113 51.3203H104.746L99.6484 65.9688L99.3672 66.6367C98.6094 68.293 97.3594 69.1211 95.6172 69.1211C95.125 69.1211 94.625 69.0469 94.1172 68.8984V66.332L94.6328 66.3438C95.2734 66.3438 95.75 66.2461 96.0625 66.0508C96.3828 65.8555 96.6328 65.5312 96.8125 65.0781L97.2109 64.0352L92.7695 51.3203H96.4141L98.7695 59.207ZM104.289 62.3359C104.289 61.7969 104.469 61.3594 104.828 61.0234C105.195 60.6875 105.652 60.5195 106.199 60.5195C106.754 60.5195 107.211 60.6875 107.57 61.0234C107.938 61.3594 108.121 61.7969 108.121 62.3359C108.121 62.8672 107.941 63.3008 107.582 63.6367C107.223 63.9648 106.762 64.1289 106.199 64.1289C105.645 64.1289 105.188 63.9648 104.828 63.6367C104.469 63.3008 104.289 62.8672 104.289 62.3359Z" fill="black"/>
</svg>
