<svg width="74" height="53" viewBox="0 0 74 53" fill="none" xmlns="http://www.w3.org/2000/svg">
<line x1="3.85272" y1="1.5" x2="68.7985" y2="1.5" stroke="black" stroke-width="3"/>
<line x1="3.85272" y1="51.5" x2="68.7985" y2="51.5" stroke="black" stroke-width="3"/>
<line x1="1.5" y1="3.58823" x2="1.5" y2="50.0588" stroke="black" stroke-width="3"/>
<line x1="72.5" y1="3.58823" x2="72.5" y2="50.0588" stroke="black" stroke-width="3"/>
<path d="M12.7021 20.6846C12.6247 21.7555 12.2282 22.5986 11.5127 23.2139C10.8018 23.8291 9.86296 24.1367 8.69629 24.1367C7.42025 24.1367 6.41536 23.7083 5.68164 22.8516C4.95247 21.9902 4.58789 20.8099 4.58789 19.3105V18.7021C4.58789 17.7451 4.75651 16.902 5.09375 16.1729C5.43099 15.4437 5.91178 14.8854 6.53613 14.498C7.16504 14.1061 7.89421 13.9102 8.72363 13.9102C9.87207 13.9102 10.7972 14.2178 11.499 14.833C12.2008 15.4482 12.6064 16.3118 12.7158 17.4238H10.665C10.6149 16.7812 10.4349 16.3164 10.125 16.0293C9.81966 15.7376 9.35254 15.5918 8.72363 15.5918C8.04004 15.5918 7.52734 15.8379 7.18555 16.3301C6.84831 16.8177 6.67513 17.5765 6.66602 18.6064V19.3584C6.66602 20.4339 6.8278 21.2201 7.15137 21.7168C7.47949 22.2135 7.99447 22.4619 8.69629 22.4619C9.32975 22.4619 9.80143 22.3184 10.1113 22.0312C10.4258 21.7396 10.6058 21.2907 10.6514 20.6846H12.7021ZM15.8467 17.4102C16.3708 16.7812 17.0293 16.4668 17.8223 16.4668C19.4264 16.4668 20.2399 17.3988 20.2627 19.2627V24H18.2871V19.3174C18.2871 18.8936 18.196 18.5814 18.0137 18.3809C17.8314 18.1758 17.5283 18.0732 17.1045 18.0732C16.5257 18.0732 16.1064 18.2965 15.8467 18.7432V24H13.8711V13.5H15.8467V17.4102ZM21.4453 20.2334C21.4453 19.4997 21.5866 18.8457 21.8691 18.2715C22.1517 17.6973 22.5573 17.2529 23.0859 16.9385C23.6191 16.624 24.2367 16.4668 24.9385 16.4668C25.9365 16.4668 26.75 16.7721 27.3789 17.3828C28.0124 17.9935 28.3656 18.8229 28.4385 19.8711L28.4521 20.377C28.4521 21.5117 28.1354 22.4232 27.502 23.1113C26.8685 23.7949 26.0186 24.1367 24.9521 24.1367C23.8857 24.1367 23.0335 23.7949 22.3955 23.1113C21.762 22.4277 21.4453 21.498 21.4453 20.3223V20.2334ZM23.4209 20.377C23.4209 21.0788 23.5531 21.6165 23.8174 21.9902C24.0817 22.3594 24.46 22.5439 24.9521 22.5439C25.4307 22.5439 25.8044 22.3617 26.0732 21.9971C26.3421 21.6279 26.4766 21.04 26.4766 20.2334C26.4766 19.5452 26.3421 19.012 26.0732 18.6338C25.8044 18.2555 25.4261 18.0664 24.9385 18.0664C24.4554 18.0664 24.0817 18.2555 23.8174 18.6338C23.5531 19.0075 23.4209 19.5885 23.4209 20.377ZM29.3613 20.2334C29.3613 19.4997 29.5026 18.8457 29.7852 18.2715C30.0677 17.6973 30.4733 17.2529 31.002 16.9385C31.5352 16.624 32.1527 16.4668 32.8545 16.4668C33.8525 16.4668 34.666 16.7721 35.2949 17.3828C35.9284 17.9935 36.2816 18.8229 36.3545 19.8711L36.3682 20.377C36.3682 21.5117 36.0514 22.4232 35.418 23.1113C34.7845 23.7949 33.9346 24.1367 32.8682 24.1367C31.8018 24.1367 30.9495 23.7949 30.3115 23.1113C29.6781 22.4277 29.3613 21.498 29.3613 20.3223V20.2334ZM31.3369 20.377C31.3369 21.0788 31.4691 21.6165 31.7334 21.9902C31.9977 22.3594 32.376 22.5439 32.8682 22.5439C33.3467 22.5439 33.7204 22.3617 33.9893 21.9971C34.2581 21.6279 34.3926 21.04 34.3926 20.2334C34.3926 19.5452 34.2581 19.012 33.9893 18.6338C33.7204 18.2555 33.3421 18.0664 32.8545 18.0664C32.3714 18.0664 31.9977 18.2555 31.7334 18.6338C31.4691 19.0075 31.3369 19.5885 31.3369 20.377ZM41.5908 21.9561C41.5908 21.7145 41.4701 21.5254 41.2285 21.3887C40.9915 21.2474 40.6087 21.1221 40.0801 21.0127C38.321 20.6436 37.4414 19.8962 37.4414 18.7705C37.4414 18.1143 37.7126 17.5674 38.2549 17.1299C38.8018 16.6878 39.515 16.4668 40.3945 16.4668C41.3333 16.4668 42.083 16.6878 42.6436 17.1299C43.2087 17.5719 43.4912 18.1462 43.4912 18.8525H41.5156C41.5156 18.57 41.4245 18.3376 41.2422 18.1553C41.0599 17.9684 40.7751 17.875 40.3877 17.875C40.055 17.875 39.7975 17.9502 39.6152 18.1006C39.4329 18.251 39.3418 18.4424 39.3418 18.6748C39.3418 18.8936 39.4443 19.0713 39.6494 19.208C39.859 19.3402 40.21 19.4564 40.7021 19.5566C41.1943 19.6523 41.609 19.7617 41.9463 19.8848C42.9899 20.2676 43.5117 20.9307 43.5117 21.874C43.5117 22.5485 43.2223 23.0954 42.6436 23.5146C42.0648 23.9294 41.3174 24.1367 40.4014 24.1367C39.7816 24.1367 39.2301 24.0273 38.7471 23.8086C38.2686 23.5853 37.8926 23.2822 37.6191 22.8994C37.3457 22.512 37.209 22.0951 37.209 21.6484H39.082C39.1003 21.9993 39.2301 22.2682 39.4717 22.4551C39.7132 22.6419 40.0368 22.7354 40.4424 22.7354C40.8206 22.7354 41.1055 22.6647 41.2969 22.5234C41.4928 22.3776 41.5908 22.1885 41.5908 21.9561ZM48.1943 24.1367C47.1097 24.1367 46.2256 23.804 45.542 23.1387C44.863 22.4733 44.5234 21.5869 44.5234 20.4795V20.2881C44.5234 19.5452 44.667 18.8822 44.9541 18.2988C45.2412 17.7109 45.6468 17.2598 46.1709 16.9453C46.6995 16.6263 47.3011 16.4668 47.9756 16.4668C48.9873 16.4668 49.7826 16.7858 50.3613 17.4238C50.9447 18.0618 51.2363 18.9665 51.2363 20.1377V20.9443H46.5264C46.5902 21.4274 46.7816 21.8148 47.1006 22.1064C47.4242 22.3981 47.832 22.5439 48.3242 22.5439C49.0853 22.5439 49.68 22.2682 50.1084 21.7168L51.0791 22.8037C50.7829 23.223 50.3818 23.5511 49.876 23.7881C49.3701 24.0205 48.8096 24.1367 48.1943 24.1367ZM47.9688 18.0664C47.5768 18.0664 47.2578 18.1986 47.0117 18.4629C46.7702 18.7272 46.6152 19.1055 46.5469 19.5977H49.2949V19.4404C49.2858 19.0029 49.1673 18.6657 48.9395 18.4287C48.7116 18.1872 48.388 18.0664 47.9688 18.0664ZM60.1367 24C60.0456 23.8223 59.9795 23.6012 59.9385 23.3369C59.46 23.8701 58.8379 24.1367 58.0723 24.1367C57.3477 24.1367 56.7461 23.9271 56.2676 23.5078C55.7936 23.0885 55.5566 22.5599 55.5566 21.9219C55.5566 21.138 55.846 20.5365 56.4248 20.1172C57.0081 19.6979 57.849 19.486 58.9473 19.4814H59.8564V19.0576C59.8564 18.7158 59.7676 18.4424 59.5898 18.2373C59.4167 18.0322 59.141 17.9297 58.7627 17.9297C58.43 17.9297 58.168 18.0094 57.9766 18.1689C57.7897 18.3285 57.6963 18.5472 57.6963 18.8252H55.7207C55.7207 18.3968 55.8529 18.0003 56.1172 17.6357C56.3815 17.2712 56.7552 16.9863 57.2383 16.7812C57.7214 16.5716 58.2637 16.4668 58.8652 16.4668C59.7767 16.4668 60.499 16.6969 61.0322 17.1572C61.57 17.613 61.8389 18.2555 61.8389 19.085V22.291C61.8434 22.9928 61.9414 23.5238 62.1328 23.8838V24H60.1367ZM58.5029 22.626C58.7946 22.626 59.0635 22.5622 59.3096 22.4346C59.5557 22.3024 59.738 22.127 59.8564 21.9082V20.6367H59.1182C58.1292 20.6367 57.6029 20.9785 57.5391 21.6621L57.5322 21.7783C57.5322 22.0244 57.6188 22.2272 57.792 22.3867C57.9652 22.5462 58.2021 22.626 58.5029 22.626ZM7.83496 38.5439C8.19954 38.5439 8.49577 38.4437 8.72363 38.2432C8.9515 38.0426 9.06999 37.776 9.0791 37.4434H10.9316C10.9271 37.9447 10.7904 38.4049 10.5215 38.8242C10.2526 39.2389 9.88346 39.5625 9.41406 39.7949C8.94922 40.0228 8.43424 40.1367 7.86914 40.1367C6.81185 40.1367 5.97786 39.8018 5.36719 39.1318C4.75651 38.4574 4.45117 37.5277 4.45117 36.3428V36.2129C4.45117 35.0736 4.75423 34.1644 5.36035 33.4854C5.96647 32.8063 6.79818 32.4668 7.85547 32.4668C8.7806 32.4668 9.52116 32.7311 10.0771 33.2598C10.6377 33.7839 10.9225 34.4834 10.9316 35.3584H9.0791C9.06999 34.9756 8.9515 34.6657 8.72363 34.4287C8.49577 34.1872 8.19499 34.0664 7.82129 34.0664C7.361 34.0664 7.01237 34.235 6.77539 34.5723C6.54297 34.9049 6.42676 35.4473 6.42676 36.1992V36.4043C6.42676 37.1654 6.54297 37.7122 6.77539 38.0449C7.00781 38.3776 7.361 38.5439 7.83496 38.5439ZM16.3457 40C16.2546 39.8223 16.1885 39.6012 16.1475 39.3369C15.6689 39.8701 15.0469 40.1367 14.2812 40.1367C13.5566 40.1367 12.9551 39.9271 12.4766 39.5078C12.0026 39.0885 11.7656 38.5599 11.7656 37.9219C11.7656 37.138 12.055 36.5365 12.6338 36.1172C13.2171 35.6979 14.0579 35.486 15.1562 35.4814H16.0654V35.0576C16.0654 34.7158 15.9766 34.4424 15.7988 34.2373C15.6257 34.0322 15.3499 33.9297 14.9717 33.9297C14.639 33.9297 14.377 34.0094 14.1855 34.1689C13.9987 34.3285 13.9053 34.5472 13.9053 34.8252H11.9297C11.9297 34.3968 12.0618 34.0003 12.3262 33.6357C12.5905 33.2712 12.9642 32.9863 13.4473 32.7812C13.9303 32.5716 14.4727 32.4668 15.0742 32.4668C15.9857 32.4668 16.708 32.6969 17.2412 33.1572C17.779 33.613 18.0479 34.2555 18.0479 35.085V38.291C18.0524 38.9928 18.1504 39.5238 18.3418 39.8838V40H16.3457ZM14.7119 38.626C15.0036 38.626 15.2725 38.5622 15.5186 38.4346C15.7646 38.3024 15.9469 38.127 16.0654 37.9082V36.6367H15.3271C14.3382 36.6367 13.8118 36.9785 13.748 37.6621L13.7412 37.7783C13.7412 38.0244 13.8278 38.2272 14.001 38.3867C14.1742 38.5462 14.4111 38.626 14.7119 38.626ZM21.9307 30.7852V32.6035H23.1953V34.0527H21.9307V37.7441C21.9307 38.0176 21.9831 38.2135 22.0879 38.332C22.1927 38.4505 22.3932 38.5098 22.6895 38.5098C22.9082 38.5098 23.1019 38.4938 23.2705 38.4619V39.959C22.8831 40.0775 22.4844 40.1367 22.0742 40.1367C20.6888 40.1367 19.9824 39.4372 19.9551 38.0381V34.0527H18.875V32.6035H19.9551V30.7852H21.9307ZM27.7002 40.1367C26.6156 40.1367 25.7314 39.804 25.0479 39.1387C24.3688 38.4733 24.0293 37.5869 24.0293 36.4795V36.2881C24.0293 35.5452 24.1729 34.8822 24.46 34.2988C24.7471 33.7109 25.1527 33.2598 25.6768 32.9453C26.2054 32.6263 26.807 32.4668 27.4814 32.4668C28.4932 32.4668 29.2884 32.7858 29.8672 33.4238C30.4505 34.0618 30.7422 34.9665 30.7422 36.1377V36.9443H26.0322C26.096 37.4274 26.2874 37.8148 26.6064 38.1064C26.93 38.3981 27.3379 38.5439 27.8301 38.5439C28.5911 38.5439 29.1859 38.2682 29.6143 37.7168L30.585 38.8037C30.2887 39.223 29.8877 39.5511 29.3818 39.7881C28.876 40.0205 28.3154 40.1367 27.7002 40.1367ZM27.4746 34.0664C27.0827 34.0664 26.7637 34.1986 26.5176 34.4629C26.276 34.7272 26.1211 35.1055 26.0527 35.5977H28.8008V35.4404C28.7917 35.0029 28.6732 34.6657 28.4453 34.4287C28.2174 34.1872 27.8939 34.0664 27.4746 34.0664ZM31.583 36.2471C31.583 35.1123 31.8519 34.1986 32.3896 33.5059C32.932 32.8132 33.6611 32.4668 34.5771 32.4668C35.3883 32.4668 36.0195 32.7448 36.4707 33.3008L36.5527 32.6035H38.3438V39.7539C38.3438 40.401 38.1956 40.9639 37.8994 41.4424C37.6077 41.9209 37.1953 42.2855 36.6621 42.5361C36.1289 42.7868 35.5046 42.9121 34.7891 42.9121C34.2467 42.9121 33.7181 42.8027 33.2031 42.584C32.6882 42.3698 32.2985 42.0918 32.0342 41.75L32.9092 40.5469C33.4014 41.0983 33.9984 41.374 34.7002 41.374C35.2243 41.374 35.6322 41.2327 35.9238 40.9502C36.2155 40.6722 36.3613 40.2757 36.3613 39.7607V39.3643C35.9056 39.8792 35.3063 40.1367 34.5635 40.1367C33.6748 40.1367 32.9548 39.7904 32.4033 39.0977C31.8564 38.4004 31.583 37.4775 31.583 36.3291V36.2471ZM33.5586 36.3906C33.5586 37.0605 33.693 37.5869 33.9619 37.9697C34.2308 38.348 34.5999 38.5371 35.0693 38.5371C35.6709 38.5371 36.1016 38.3115 36.3613 37.8604V34.75C36.097 34.2988 35.6709 34.0732 35.083 34.0732C34.609 34.0732 34.2354 34.2669 33.9619 34.6543C33.693 35.0417 33.5586 35.6204 33.5586 36.3906ZM39.5605 36.2334C39.5605 35.4997 39.7018 34.8457 39.9844 34.2715C40.2669 33.6973 40.6725 33.2529 41.2012 32.9385C41.7344 32.624 42.3519 32.4668 43.0537 32.4668C44.0518 32.4668 44.8652 32.7721 45.4941 33.3828C46.1276 33.9935 46.4808 34.8229 46.5537 35.8711L46.5674 36.377C46.5674 37.5117 46.2507 38.4232 45.6172 39.1113C44.9837 39.7949 44.1338 40.1367 43.0674 40.1367C42.001 40.1367 41.1488 39.7949 40.5107 39.1113C39.8773 38.4277 39.5605 37.498 39.5605 36.3223V36.2334ZM41.5361 36.377C41.5361 37.0788 41.6683 37.6165 41.9326 37.9902C42.1969 38.3594 42.5752 38.5439 43.0674 38.5439C43.5459 38.5439 43.9196 38.3617 44.1885 37.9971C44.4574 37.6279 44.5918 37.04 44.5918 36.2334C44.5918 35.5452 44.4574 35.012 44.1885 34.6338C43.9196 34.2555 43.5413 34.0664 43.0537 34.0664C42.5706 34.0664 42.1969 34.2555 41.9326 34.6338C41.6683 35.0075 41.5361 35.5885 41.5361 36.377ZM51.9404 34.4561C51.6715 34.4196 51.4346 34.4014 51.2295 34.4014C50.4821 34.4014 49.9922 34.6543 49.7598 35.1602V40H47.7842V32.6035H49.6504L49.7051 33.4854C50.1016 32.8063 50.6507 32.4668 51.3525 32.4668C51.5713 32.4668 51.7764 32.4964 51.9678 32.5557L51.9404 34.4561ZM55.7822 37.2041L57.1494 32.6035H59.2686L56.2949 41.1484L56.1309 41.5381C55.6888 42.5042 54.9596 42.9873 53.9434 42.9873C53.6562 42.9873 53.3646 42.944 53.0684 42.8574V41.3604L53.3691 41.3672C53.7428 41.3672 54.0208 41.3102 54.2031 41.1963C54.39 41.0824 54.5358 40.8932 54.6406 40.6289L54.873 40.0205L52.2822 32.6035H54.4082L55.7822 37.2041ZM59.002 39.0293C59.002 38.7148 59.1068 38.4596 59.3164 38.2637C59.5306 38.0677 59.7972 37.9697 60.1162 37.9697C60.4398 37.9697 60.7064 38.0677 60.916 38.2637C61.1302 38.4596 61.2373 38.7148 61.2373 39.0293C61.2373 39.3392 61.1325 39.5921 60.9229 39.7881C60.7132 39.9795 60.4443 40.0752 60.1162 40.0752C59.7926 40.0752 59.526 39.9795 59.3164 39.7881C59.1068 39.5921 59.002 39.3392 59.002 39.0293Z" fill="black"/>
</svg>
