<svg width="44" height="45" viewBox="0 0 44 45" fill="none" xmlns="http://www.w3.org/2000/svg">
<path d="M42.5 22.5C42.5 34.1299 33.2902 43.5 22 43.5C10.7098 43.5 1.5 34.1299 1.5 22.5C1.5 10.8701 10.7098 1.5 22 1.5C33.2902 1.5 42.5 10.8701 42.5 22.5Z" stroke="black" stroke-width="3"/>
<path d="M29.0664 24.3164C28.9336 26.1523 28.2539 27.5977 27.0273 28.6523C25.8086 29.707 24.1992 30.2344 22.1992 30.2344C20.0117 30.2344 18.2891 29.5 17.0312 28.0312C15.7812 26.5547 15.1562 24.5312 15.1562 21.9609V20.918C15.1562 19.2773 15.4453 17.832 16.0234 16.582C16.6016 15.332 17.4258 14.375 18.4961 13.7109C19.5742 13.0391 20.8242 12.7031 22.2461 12.7031C24.2148 12.7031 25.8008 13.2305 27.0039 14.2852C28.207 15.3398 28.9023 16.8203 29.0898 18.7266H25.5742C25.4883 17.625 25.1797 16.8281 24.6484 16.3359C24.125 15.8359 23.3242 15.5859 22.2461 15.5859C21.0742 15.5859 20.1953 16.0078 19.6094 16.8516C19.0312 17.6875 18.7344 18.9883 18.7188 20.7539V22.043C18.7188 23.8867 18.9961 25.2344 19.5508 26.0859C20.1133 26.9375 20.9961 27.3633 22.1992 27.3633C23.2852 27.3633 24.0938 27.1172 24.625 26.625C25.1641 26.125 25.4727 25.3555 25.5508 24.3164H29.0664Z" fill="black"/>
</svg>
