<svg width="44" height="45" viewBox="0 0 44 45" fill="none" xmlns="http://www.w3.org/2000/svg">
<path d="M42.5 22.5C42.5 34.1299 33.2902 43.5 22 43.5C10.7098 43.5 1.5 34.1299 1.5 22.5C1.5 10.8701 10.7098 1.5 22 1.5C33.2902 1.5 42.5 10.8701 42.5 22.5Z" stroke="black" stroke-width="3"/>
<path d="M20.7812 25.3164C20.6484 27.1523 19.9688 28.5977 18.7422 29.6523C17.5234 30.707 15.9141 31.2344 13.9141 31.2344C11.7266 31.2344 10.0039 30.5 8.74609 29.0312C7.49609 27.5547 6.87109 25.5312 6.87109 22.9609V21.918C6.87109 20.2773 7.16016 18.832 7.73828 17.582C8.31641 16.332 9.14062 15.375 10.2109 14.7109C11.2891 14.0391 12.5391 13.7031 13.9609 13.7031C15.9297 13.7031 17.5156 14.2305 18.7188 15.2852C19.9219 16.3398 20.6172 17.8203 20.8047 19.7266H17.2891C17.2031 18.625 16.8945 17.8281 16.3633 17.3359C15.8398 16.8359 15.0391 16.5859 13.9609 16.5859C12.7891 16.5859 11.9102 17.0078 11.3242 17.8516C10.7461 18.6875 10.4492 19.9883 10.4336 21.7539V23.043C10.4336 24.8867 10.7109 26.2344 11.2656 27.0859C11.8281 27.9375 12.7109 28.3633 13.9141 28.3633C15 28.3633 15.8086 28.1172 16.3398 27.625C16.8789 27.125 17.1875 26.3555 17.2656 25.3164H20.7812ZM37.1055 22.8555C37.1055 24.5352 36.8086 26.0078 36.2148 27.2734C35.6211 28.5391 34.7695 29.5156 33.6602 30.2031C32.5586 30.8906 31.293 31.2344 29.8633 31.2344C28.4492 31.2344 27.1875 30.8945 26.0781 30.2148C24.9688 29.5352 24.1094 28.5664 23.5 27.3086C22.8906 26.043 22.582 24.5898 22.5742 22.9492V22.1055C22.5742 20.4258 22.875 18.9492 23.4766 17.6758C24.0859 16.3945 24.9414 15.4141 26.043 14.7344C27.1523 14.0469 28.418 13.7031 29.8398 13.7031C31.2617 13.7031 32.5234 14.0469 33.625 14.7344C34.7344 15.4141 35.5898 16.3945 36.1914 17.6758C36.8008 18.9492 37.1055 20.4219 37.1055 22.0938V22.8555ZM33.543 22.082C33.543 20.293 33.2227 18.9336 32.582 18.0039C31.9414 17.0742 31.0273 16.6094 29.8398 16.6094C28.6602 16.6094 27.75 17.0703 27.1094 17.9922C26.4688 18.9062 26.1445 20.25 26.1367 22.0234V22.8555C26.1367 24.5977 26.457 25.9492 27.0977 26.9102C27.7383 27.8711 28.6602 28.3516 29.8633 28.3516C31.043 28.3516 31.9492 27.8906 32.582 26.9688C33.2148 26.0391 33.5352 24.6875 33.543 22.9141V22.082Z" fill="black"/>
</svg>
