<svg width="44" height="45" viewBox="0 0 44 45" fill="none" xmlns="http://www.w3.org/2000/svg">
<path d="M42.5 22.5C42.5 34.1299 33.2902 43.5 22 43.5C10.7098 43.5 1.5 34.1299 1.5 22.5C1.5 10.8701 10.7098 1.5 22 1.5C33.2902 1.5 42.5 10.8701 42.5 22.5Z" stroke="black" stroke-width="3"/>
<path d="M21.8125 25.3164C21.6797 27.1523 21 28.5977 19.7734 29.6523C18.5547 30.707 16.9453 31.2344 14.9453 31.2344C12.7578 31.2344 11.0352 30.5 9.77734 29.0312C8.52734 27.5547 7.90234 25.5312 7.90234 22.9609V21.918C7.90234 20.2773 8.19141 18.832 8.76953 17.582C9.34766 16.332 10.1719 15.375 11.2422 14.7109C12.3203 14.0391 13.5703 13.7031 14.9922 13.7031C16.9609 13.7031 18.5469 14.2305 19.75 15.2852C20.9531 16.3398 21.6484 17.8203 21.8359 19.7266H18.3203C18.2344 18.625 17.9258 17.8281 17.3945 17.3359C16.8711 16.8359 16.0703 16.5859 14.9922 16.5859C13.8203 16.5859 12.9414 17.0078 12.3555 17.8516C11.7773 18.6875 11.4805 19.9883 11.4648 21.7539V23.043C11.4648 24.8867 11.7422 26.2344 12.2969 27.0859C12.8594 27.9375 13.7422 28.3633 14.9453 28.3633C16.0312 28.3633 16.8398 28.1172 17.3711 27.625C17.9102 27.125 18.2188 26.3555 18.2969 25.3164H21.8125ZM36.6133 16.7852H31.3867V31H27.8711V16.7852H22.7148V13.9375H36.6133V16.7852Z" fill="black"/>
</svg>
