<svg width="44" height="45" viewBox="0 0 44 45" fill="none" xmlns="http://www.w3.org/2000/svg">
<path d="M42.5 22.5C42.5 34.1299 33.2902 43.5 22 43.5C10.7098 43.5 1.5 34.1299 1.5 22.5C1.5 10.8701 10.7098 1.5 22 1.5C33.2902 1.5 42.5 10.8701 42.5 22.5Z" stroke="black" stroke-width="3"/>
<path d="M15.7188 30V12.9375H20.9688C22.4688 12.9375 23.8086 13.2773 24.9883 13.957C26.1758 14.6289 27.1016 15.5898 27.7656 16.8398C28.4297 18.082 28.7617 19.4961 28.7617 21.082V21.8672C28.7617 23.4531 28.4336 24.8633 27.7773 26.0977C27.1289 27.332 26.2109 28.2891 25.0234 28.9688C23.8359 29.6484 22.4961 29.9922 21.0039 30H15.7188ZM19.2344 15.7852V27.1758H20.9336C22.3086 27.1758 23.3594 26.7266 24.0859 25.8281C24.8125 24.9297 25.1836 23.6445 25.1992 21.9727V21.0703C25.1992 19.3359 24.8398 18.0234 24.1211 17.1328C23.4023 16.2344 22.3516 15.7852 20.9688 15.7852H19.2344Z" fill="black"/>
</svg>
