<svg width="45" height="45" viewBox="0 0 45 45" fill="none" xmlns="http://www.w3.org/2000/svg">
<path d="M43.5 22.5C43.5 34.1299 34.2902 43.5 23 43.5C11.7098 43.5 2.5 34.1299 2.5 22.5C2.5 10.8701 11.7098 1.5 23 1.5C34.2902 1.5 43.5 10.8701 43.5 22.5Z" stroke="black" stroke-width="3"/>
<path d="M8.96875 31V13.9375H14.2188C15.7188 13.9375 17.0586 14.2773 18.2383 14.957C19.4258 15.6289 20.3516 16.5898 21.0156 17.8398C21.6797 19.082 22.0117 20.4961 22.0117 22.082V22.8672C22.0117 24.4531 21.6836 25.8633 21.0273 27.0977C20.3789 28.332 19.4609 29.2891 18.2734 29.9688C17.0859 30.6484 15.7461 30.9922 14.2539 31H8.96875ZM12.4844 16.7852V28.1758H14.1836C15.5586 28.1758 16.6094 27.7266 17.3359 26.8281C18.0625 25.9297 18.4336 24.6445 18.4492 22.9727V22.0703C18.4492 20.3359 18.0898 19.0234 17.3711 18.1328C16.6523 17.2344 15.6016 16.7852 14.2188 16.7852H12.4844ZM34.8438 23.6055H28.0938V28.1758H36.0156V31H24.5781V13.9375H35.9922V16.7852H28.0938V20.8516H34.8438V23.6055Z" fill="black"/>
</svg>
