<svg width="44" height="45" viewBox="0 0 44 45" fill="none" xmlns="http://www.w3.org/2000/svg">
<path d="M42.5 22.5C42.5 34.1299 33.2902 43.5 22 43.5C10.7098 43.5 1.5 34.1299 1.5 22.5C1.5 10.8701 10.7098 1.5 22 1.5C33.2902 1.5 42.5 10.8701 42.5 22.5Z" stroke="black" stroke-width="3"/>
<path d="M7.86719 30V12.9375H13.1172C14.6172 12.9375 15.957 13.2773 17.1367 13.957C18.3242 14.6289 19.25 15.5898 19.9141 16.8398C20.5781 18.082 20.9102 19.4961 20.9102 21.082V21.8672C20.9102 23.4531 20.582 24.8633 19.9258 26.0977C19.2773 27.332 18.3594 28.2891 17.1719 28.9688C15.9844 29.6484 14.6445 29.9922 13.1523 30H7.86719ZM11.3828 15.7852V27.1758H13.082C14.457 27.1758 15.5078 26.7266 16.2344 25.8281C16.9609 24.9297 17.332 23.6445 17.3477 21.9727V21.0703C17.3477 19.3359 16.9883 18.0234 16.2695 17.1328C15.5508 16.2344 14.5 15.7852 13.1172 15.7852H11.3828ZM36.8711 24.3164C36.7383 26.1523 36.0586 27.5977 34.832 28.6523C33.6133 29.707 32.0039 30.2344 30.0039 30.2344C27.8164 30.2344 26.0938 29.5 24.8359 28.0312C23.5859 26.5547 22.9609 24.5312 22.9609 21.9609V20.918C22.9609 19.2773 23.25 17.832 23.8281 16.582C24.4062 15.332 25.2305 14.375 26.3008 13.7109C27.3789 13.0391 28.6289 12.7031 30.0508 12.7031C32.0195 12.7031 33.6055 13.2305 34.8086 14.2852C36.0117 15.3398 36.707 16.8203 36.8945 18.7266H33.3789C33.293 17.625 32.9844 16.8281 32.4531 16.3359C31.9297 15.8359 31.1289 15.5859 30.0508 15.5859C28.8789 15.5859 28 16.0078 27.4141 16.8516C26.8359 17.6875 26.5391 18.9883 26.5234 20.7539V22.043C26.5234 23.8867 26.8008 25.2344 27.3555 26.0859C27.918 26.9375 28.8008 27.3633 30.0039 27.3633C31.0898 27.3633 31.8984 27.1172 32.4297 26.625C32.9688 26.125 33.2773 25.3555 33.3555 24.3164H36.8711Z" fill="black"/>
</svg>
