<svg width="44" height="45" viewBox="0 0 44 45" fill="none" xmlns="http://www.w3.org/2000/svg">
<path d="M42.5 22.5C42.5 34.1299 33.2902 43.5 22 43.5C10.7098 43.5 1.5 34.1299 1.5 22.5C1.5 10.8701 10.7098 1.5 22 1.5C33.2902 1.5 42.5 10.8701 42.5 22.5Z" stroke="black" stroke-width="3"/>
<path d="M28.8438 27.8438C28.2109 28.6016 27.3164 29.1914 26.1602 29.6133C25.0039 30.0273 23.7227 30.2344 22.3164 30.2344C20.8398 30.2344 19.543 29.9141 18.4258 29.2734C17.3164 28.625 16.457 27.6875 15.8477 26.4609C15.2461 25.2344 14.9375 23.793 14.9219 22.1367V20.9766C14.9219 19.2734 15.207 17.8008 15.7773 16.5586C16.3555 15.3086 17.1836 14.3555 18.2617 13.6992C19.3477 13.0352 20.6172 12.7031 22.0703 12.7031C24.0938 12.7031 25.6758 13.1875 26.8164 14.1562C27.957 15.1172 28.6328 16.5195 28.8438 18.3633H25.4219C25.2656 17.3867 24.918 16.6719 24.3789 16.2188C23.8477 15.7656 23.1133 15.5391 22.1758 15.5391C20.9805 15.5391 20.0703 15.9883 19.4453 16.8867C18.8203 17.7852 18.5039 19.1211 18.4961 20.8945V21.9844C18.4961 23.7734 18.8359 25.125 19.5156 26.0391C20.1953 26.9531 21.1914 27.4102 22.5039 27.4102C23.8242 27.4102 24.7656 27.1289 25.3281 26.5664V23.625H22.1289V21.0352H28.8438V27.8438Z" fill="black"/>
</svg>
