<svg width="44" height="45" viewBox="0 0 44 45" fill="none" xmlns="http://www.w3.org/2000/svg">
<path d="M42.5 22.5C42.5 34.1299 33.2902 43.5 22 43.5C10.7098 43.5 1.5 34.1299 1.5 22.5C1.5 10.8701 10.7098 1.5 22 1.5C33.2902 1.5 42.5 10.8701 42.5 22.5Z" stroke="black" stroke-width="3"/>
<path d="M20.7695 28.8438C20.1367 29.6016 19.2422 30.1914 18.0859 30.6133C16.9297 31.0273 15.6484 31.2344 14.2422 31.2344C12.7656 31.2344 11.4688 30.9141 10.3516 30.2734C9.24219 29.625 8.38281 28.6875 7.77344 27.4609C7.17188 26.2344 6.86328 24.793 6.84766 23.1367V21.9766C6.84766 20.2734 7.13281 18.8008 7.70312 17.5586C8.28125 16.3086 9.10938 15.3555 10.1875 14.6992C11.2734 14.0352 12.543 13.7031 13.9961 13.7031C16.0195 13.7031 17.6016 14.1875 18.7422 15.1562C19.8828 16.1172 20.5586 17.5195 20.7695 19.3633H17.3477C17.1914 18.3867 16.8438 17.6719 16.3047 17.2188C15.7734 16.7656 15.0391 16.5391 14.1016 16.5391C12.9062 16.5391 11.9961 16.9883 11.3711 17.8867C10.7461 18.7852 10.4297 20.1211 10.4219 21.8945V22.9844C10.4219 24.7734 10.7617 26.125 11.4414 27.0391C12.1211 27.9531 13.1172 28.4102 14.4297 28.4102C15.75 28.4102 16.6914 28.1289 17.2539 27.5664V24.625H14.0547V22.0352H20.7695V28.8438ZM33.2617 27.4844H27.0977L25.9258 31H22.1875L28.5391 13.9375H31.7969L38.1836 31H34.4453L33.2617 27.4844ZM28.0469 24.6367H32.3125L30.168 18.25L28.0469 24.6367Z" fill="black"/>
</svg>
