<svg width="198" height="132" viewBox="0 0 132 88" fill="none" xmlns="http://www.w3.org/2000/svg">
<line x1="7" y1="1.5" x2="125" y2="1.5" stroke="black" stroke-width="3"/>
<line x1="7" y1="86.5" x2="125" y2="86.5" stroke="black" stroke-width="3"/>
<line x1="1.5" y1="4" x2="1.5" y2="83" stroke="black" stroke-width="3"/>
<line x1="130.5" y1="4" x2="130.5" y2="83" stroke="black" stroke-width="3"/>
<path d="M12.0391 34.1758H19.5039V37H8.52344V19.9375H12.0391V34.1758ZM27.1445 37.2344C25.2852 37.2344 23.7695 36.6641 22.5977 35.5234C21.4336 34.3828 20.8516 32.8633 20.8516 30.9648V30.6367C20.8516 29.3633 21.0977 28.2266 21.5898 27.2266C22.082 26.2188 22.7773 25.4453 23.6758 24.9062C24.582 24.3594 25.6133 24.0859 26.7695 24.0859C28.5039 24.0859 29.8672 24.6328 30.8594 25.7266C31.8594 26.8203 32.3594 28.3711 32.3594 30.3789V31.7617H24.2852C24.3945 32.5898 24.7227 33.2539 25.2695 33.7539C25.8242 34.2539 26.5234 34.5039 27.3672 34.5039C28.6719 34.5039 29.6914 34.0312 30.4258 33.0859L32.0898 34.9492C31.582 35.668 30.8945 36.2305 30.0273 36.6367C29.1602 37.0352 28.1992 37.2344 27.1445 37.2344ZM26.7578 26.8281C26.0859 26.8281 25.5391 27.0547 25.1172 27.5078C24.7031 27.9609 24.4375 28.6094 24.3203 29.4531H29.0312V29.1836C29.0156 28.4336 28.8125 27.8555 28.4219 27.4492C28.0312 27.0352 27.4766 26.8281 26.7578 26.8281ZM38.3477 21.2031V24.3203H40.5156V26.8047H38.3477V33.1328C38.3477 33.6016 38.4375 33.9375 38.6172 34.1406C38.7969 34.3438 39.1406 34.4453 39.6484 34.4453C40.0234 34.4453 40.3555 34.418 40.6445 34.3633V36.9297C39.9805 37.1328 39.2969 37.2344 38.5938 37.2344C36.2188 37.2344 35.0078 36.0352 34.9609 33.6367V26.8047H33.1094V24.3203H34.9609V21.2031H38.3477ZM43.6562 25.1758L42.0625 24.25C42.7344 23.1953 43.082 22.1055 43.1055 20.9805V19H45.8008V20.8164C45.8008 21.5195 45.6055 22.2812 45.2148 23.1016C44.8242 23.9219 44.3047 24.6133 43.6562 25.1758ZM52.3398 33.4961C52.3398 33.082 52.1328 32.7578 51.7188 32.5234C51.3125 32.2812 50.6562 32.0664 49.75 31.8789C46.7344 31.2461 45.2266 29.9648 45.2266 28.0352C45.2266 26.9102 45.6914 25.9727 46.6211 25.2227C47.5586 24.4648 48.7812 24.0859 50.2891 24.0859C51.8984 24.0859 53.1836 24.4648 54.1445 25.2227C55.1133 25.9805 55.5977 26.9648 55.5977 28.1758H52.2109C52.2109 27.6914 52.0547 27.293 51.7422 26.9805C51.4297 26.6602 50.9414 26.5 50.2773 26.5C49.707 26.5 49.2656 26.6289 48.9531 26.8867C48.6406 27.1445 48.4844 27.4727 48.4844 27.8711C48.4844 28.2461 48.6602 28.5508 49.0117 28.7852C49.3711 29.0117 49.9727 29.2109 50.8164 29.3828C51.6602 29.5469 52.3711 29.7344 52.9492 29.9453C54.7383 30.6016 55.6328 31.7383 55.6328 33.3555C55.6328 34.5117 55.1367 35.4492 54.1445 36.168C53.1523 36.8789 51.8711 37.2344 50.3008 37.2344C49.2383 37.2344 48.293 37.0469 47.4648 36.6719C46.6445 36.2891 46 35.7695 45.5312 35.1133C45.0625 34.4492 44.8281 33.7344 44.8281 32.9688H48.0391C48.0703 33.5703 48.293 34.0312 48.707 34.3516C49.1211 34.6719 49.6758 34.832 50.3711 34.832C51.0195 34.832 51.5078 34.7109 51.8359 34.4688C52.1719 34.2188 52.3398 33.8945 52.3398 33.4961ZM63.3086 30.5664C63.3086 28.6211 63.7695 27.0547 64.6914 25.8672C65.6211 24.6797 66.8711 24.0859 68.4414 24.0859C69.832 24.0859 70.9141 24.5625 71.6875 25.5156L71.8281 24.3203H74.8984V36.5781C74.8984 37.6875 74.6445 38.6523 74.1367 39.4727C73.6367 40.293 72.9297 40.918 72.0156 41.3477C71.1016 41.7773 70.0312 41.9922 68.8047 41.9922C67.875 41.9922 66.9688 41.8047 66.0859 41.4297C65.2031 41.0625 64.5352 40.5859 64.082 40L65.582 37.9375C66.4258 38.8828 67.4492 39.3555 68.6523 39.3555C69.5508 39.3555 70.25 39.1133 70.75 38.6289C71.25 38.1523 71.5 37.4727 71.5 36.5898V35.9102C70.7188 36.793 69.6914 37.2344 68.418 37.2344C66.8945 37.2344 65.6602 36.6406 64.7148 35.4531C63.7773 34.2578 63.3086 32.6758 63.3086 30.707V30.5664ZM66.6953 30.8125C66.6953 31.9609 66.9258 32.8633 67.3867 33.5195C67.8477 34.168 68.4805 34.4922 69.2852 34.4922C70.3164 34.4922 71.0547 34.1055 71.5 33.332V28C71.0469 27.2266 70.3164 26.8398 69.3086 26.8398C68.4961 26.8398 67.8555 27.1719 67.3867 27.8359C66.9258 28.5 66.6953 29.4922 66.6953 30.8125ZM83.3477 37.2344C81.4883 37.2344 79.9727 36.6641 78.8008 35.5234C77.6367 34.3828 77.0547 32.8633 77.0547 30.9648V30.6367C77.0547 29.3633 77.3008 28.2266 77.793 27.2266C78.2852 26.2188 78.9805 25.4453 79.8789 24.9062C80.7852 24.3594 81.8164 24.0859 82.9727 24.0859C84.707 24.0859 86.0703 24.6328 87.0625 25.7266C88.0625 26.8203 88.5625 28.3711 88.5625 30.3789V31.7617H80.4883C80.5977 32.5898 80.9258 33.2539 81.4727 33.7539C82.0273 34.2539 82.7266 34.5039 83.5703 34.5039C84.875 34.5039 85.8945 34.0312 86.6289 33.0859L88.293 34.9492C87.7852 35.668 87.0977 36.2305 86.2305 36.6367C85.3633 37.0352 84.4023 37.2344 83.3477 37.2344ZM82.9609 26.8281C82.2891 26.8281 81.7422 27.0547 81.3203 27.5078C80.9062 27.9609 80.6406 28.6094 80.5234 29.4531H85.2344V29.1836C85.2188 28.4336 85.0156 27.8555 84.625 27.4492C84.2344 27.0352 83.6797 26.8281 82.9609 26.8281ZM94.5508 21.2031V24.3203H96.7188V26.8047H94.5508V33.1328C94.5508 33.6016 94.6406 33.9375 94.8203 34.1406C95 34.3438 95.3438 34.4453 95.8516 34.4453C96.2266 34.4453 96.5586 34.418 96.8477 34.3633V36.9297C96.1836 37.1328 95.5 37.2344 94.7969 37.2344C92.4219 37.2344 91.2109 36.0352 91.1641 33.6367V26.8047H89.3125V24.3203H91.1641V21.2031H94.5508ZM15.168 61.4961C15.168 61.082 14.9609 60.7578 14.5469 60.5234C14.1406 60.2812 13.4844 60.0664 12.5781 59.8789C9.5625 59.2461 8.05469 57.9648 8.05469 56.0352C8.05469 54.9102 8.51953 53.9727 9.44922 53.2227C10.3867 52.4648 11.6094 52.0859 13.1172 52.0859C14.7266 52.0859 16.0117 52.4648 16.9727 53.2227C17.9414 53.9805 18.4258 54.9648 18.4258 56.1758H15.0391C15.0391 55.6914 14.8828 55.293 14.5703 54.9805C14.2578 54.6602 13.7695 54.5 13.1055 54.5C12.5352 54.5 12.0938 54.6289 11.7812 54.8867C11.4688 55.1445 11.3125 55.4727 11.3125 55.8711C11.3125 56.2461 11.4883 56.5508 11.8398 56.7852C12.1992 57.0117 12.8008 57.2109 13.6445 57.3828C14.4883 57.5469 15.1992 57.7344 15.7773 57.9453C17.5664 58.6016 18.4609 59.7383 18.4609 61.3555C18.4609 62.5117 17.9648 63.4492 16.9727 64.168C15.9805 64.8789 14.6992 65.2344 13.1289 65.2344C12.0664 65.2344 11.1211 65.0469 10.293 64.6719C9.47266 64.2891 8.82812 63.7695 8.35938 63.1133C7.89062 62.4492 7.65625 61.7344 7.65625 60.9688H10.8672C10.8984 61.5703 11.1211 62.0312 11.5352 62.3516C11.9492 62.6719 12.5039 62.832 13.1992 62.832C13.8477 62.832 14.3359 62.7109 14.6641 62.4688C15 62.2188 15.168 61.8945 15.168 61.4961ZM24.707 49.2031V52.3203H26.875V54.8047H24.707V61.1328C24.707 61.6016 24.7969 61.9375 24.9766 62.1406C25.1562 62.3438 25.5 62.4453 26.0078 62.4453C26.3828 62.4453 26.7148 62.418 27.0039 62.3633V64.9297C26.3398 65.1328 25.6562 65.2344 24.9531 65.2344C22.5781 65.2344 21.3672 64.0352 21.3203 61.6367V54.8047H19.4688V52.3203H21.3203V49.2031H24.707ZM36.1094 65C35.9531 64.6953 35.8398 64.3164 35.7695 63.8633C34.9492 64.7773 33.8828 65.2344 32.5703 65.2344C31.3281 65.2344 30.2969 64.875 29.4766 64.1562C28.6641 63.4375 28.2578 62.5312 28.2578 61.4375C28.2578 60.0938 28.7539 59.0625 29.7461 58.3438C30.7461 57.625 32.1875 57.2617 34.0703 57.2539H35.6289V56.5273C35.6289 55.9414 35.4766 55.4727 35.1719 55.1211C34.875 54.7695 34.4023 54.5938 33.7539 54.5938C33.1836 54.5938 32.7344 54.7305 32.4062 55.0039C32.0859 55.2773 31.9258 55.6523 31.9258 56.1289H28.5391C28.5391 55.3945 28.7656 54.7148 29.2188 54.0898C29.6719 53.4648 30.3125 52.9766 31.1406 52.625C31.9688 52.2656 32.8984 52.0859 33.9297 52.0859C35.4922 52.0859 36.7305 52.4805 37.6445 53.2695C38.5664 54.0508 39.0273 55.1523 39.0273 56.5742V62.0703C39.0352 63.2734 39.2031 64.1836 39.5312 64.8008V65H36.1094ZM33.3086 62.6445C33.8086 62.6445 34.2695 62.5352 34.6914 62.3164C35.1133 62.0898 35.4258 61.7891 35.6289 61.4141V59.2344H34.3633C32.668 59.2344 31.7656 59.8203 31.6562 60.9922L31.6445 61.1914C31.6445 61.6133 31.793 61.9609 32.0898 62.2344C32.3867 62.5078 32.793 62.6445 33.3086 62.6445ZM48.7539 55.4961C48.293 55.4336 47.8867 55.4023 47.5352 55.4023C46.2539 55.4023 45.4141 55.8359 45.0156 56.7031V65H41.6289V52.3203H44.8281L44.9219 53.832C45.6016 52.668 46.543 52.0859 47.7461 52.0859C48.1211 52.0859 48.4727 52.1367 48.8008 52.2383L48.7539 55.4961ZM55.0352 49.2031V52.3203H57.2031V54.8047H55.0352V61.1328C55.0352 61.6016 55.125 61.9375 55.3047 62.1406C55.4844 62.3438 55.8281 62.4453 56.3359 62.4453C56.7109 62.4453 57.043 62.418 57.332 62.3633V64.9297C56.668 65.1328 55.9844 65.2344 55.2812 65.2344C52.9062 65.2344 51.6953 64.0352 51.6484 61.6367V54.8047H49.7969V52.3203H51.6484V49.2031H55.0352ZM64.9258 65.2344C63.0664 65.2344 61.5508 64.6641 60.3789 63.5234C59.2148 62.3828 58.6328 60.8633 58.6328 58.9648V58.6367C58.6328 57.3633 58.8789 56.2266 59.3711 55.2266C59.8633 54.2188 60.5586 53.4453 61.457 52.9062C62.3633 52.3594 63.3945 52.0859 64.5508 52.0859C66.2852 52.0859 67.6484 52.6328 68.6406 53.7266C69.6406 54.8203 70.1406 56.3711 70.1406 58.3789V59.7617H62.0664C62.1758 60.5898 62.5039 61.2539 63.0508 61.7539C63.6055 62.2539 64.3047 62.5039 65.1484 62.5039C66.4531 62.5039 67.4727 62.0312 68.207 61.0859L69.8711 62.9492C69.3633 63.668 68.6758 64.2305 67.8086 64.6367C66.9414 65.0352 65.9805 65.2344 64.9258 65.2344ZM64.5391 54.8281C63.8672 54.8281 63.3203 55.0547 62.8984 55.5078C62.4844 55.9609 62.2188 56.6094 62.1016 57.4531H66.8125V57.1836C66.7969 56.4336 66.5938 55.8555 66.2031 55.4492C65.8125 55.0352 65.2578 54.8281 64.5391 54.8281ZM71.5469 58.5664C71.5469 56.5898 71.9883 55.0156 72.8711 53.8438C73.7617 52.6719 74.9766 52.0859 76.5156 52.0859C77.75 52.0859 78.7695 52.5469 79.5742 53.4688V47H82.9727V65H79.9141L79.75 63.6523C78.9062 64.707 77.8203 65.2344 76.4922 65.2344C75 65.2344 73.8008 64.6484 72.8945 63.4766C71.9961 62.2969 71.5469 60.6602 71.5469 58.5664ZM74.9336 58.8125C74.9336 60 75.1406 60.9102 75.5547 61.543C75.9688 62.1758 76.5703 62.4922 77.3594 62.4922C78.4062 62.4922 79.1445 62.0508 79.5742 61.168V56.1641C79.1523 55.2812 78.4219 54.8398 77.3828 54.8398C75.75 54.8398 74.9336 56.1641 74.9336 58.8125ZM85.7734 63.3359C85.7734 62.7969 85.9531 62.3594 86.3125 62.0234C86.6797 61.6875 87.1367 61.5195 87.6836 61.5195C88.2383 61.5195 88.6953 61.6875 89.0547 62.0234C89.4219 62.3594 89.6055 62.7969 89.6055 63.3359C89.6055 63.8672 89.4258 64.3008 89.0664 64.6367C88.707 64.9648 88.2461 65.1289 87.6836 65.1289C87.1289 65.1289 86.6719 64.9648 86.3125 64.6367C85.9531 64.3008 85.7734 63.8672 85.7734 63.3359Z" fill="black"/>
</svg>
