<svg width="44" height="45" viewBox="0 0 44 45" fill="none" xmlns="http://www.w3.org/2000/svg">
<path d="M42.5 22.5C42.5 34.1299 33.2902 43.5 22 43.5C10.7098 43.5 1.5 34.1299 1.5 22.5C1.5 10.8701 10.7098 1.5 22 1.5C33.2902 1.5 42.5 10.8701 42.5 22.5Z" stroke="black" stroke-width="3"/>
<path d="M15.9531 31H12.4375V13.9375H15.9531V31ZM19.2227 31V13.9375H24.4727C25.9727 13.9375 27.3125 14.2773 28.4922 14.957C29.6797 15.6289 30.6055 16.5898 31.2695 17.8398C31.9336 19.082 32.2656 20.4961 32.2656 22.082V22.8672C32.2656 24.4531 31.9375 25.8633 31.2812 27.0977C30.6328 28.332 29.7148 29.2891 28.5273 29.9688C27.3398 30.6484 26 30.9922 24.5078 31H19.2227ZM22.7383 16.7852V28.1758H24.4375C25.8125 28.1758 26.8633 27.7266 27.5898 26.8281C28.3164 25.9297 28.6875 24.6445 28.7031 22.9727V22.0703C28.7031 20.3359 28.3438 19.0234 27.625 18.1328C26.9062 17.2344 25.8555 16.7852 24.4727 16.7852H22.7383Z" fill="black"/>
</svg>
