<svg width="44" height="45" viewBox="0 0 44 45" fill="none" xmlns="http://www.w3.org/2000/svg">
<path d="M42.5 22.5C42.5 34.1299 33.2902 43.5 22 43.5C10.7098 43.5 1.5 34.1299 1.5 22.5C1.5 10.8701 10.7098 1.5 22 1.5C33.2902 1.5 42.5 10.8701 42.5 22.5Z" stroke="black" stroke-width="3"/>
<path d="M13.8672 24.1562L12.0391 26.125V31H8.52344V13.9375H12.0391V21.6719L13.5859 19.5508L17.9336 13.9375H22.2578L16.1992 21.5195L22.4336 31H18.25L13.8672 24.1562ZM32.6055 26.5234C32.6055 25.8594 32.3711 25.3516 31.9023 25C31.4336 24.6406 30.5898 24.2656 29.3711 23.875C28.1523 23.4766 27.1875 23.0859 26.4766 22.7031C24.5391 21.6562 23.5703 20.2461 23.5703 18.4727C23.5703 17.5508 23.8281 16.7305 24.3438 16.0117C24.8672 15.2852 25.6133 14.7188 26.582 14.3125C27.5586 13.9062 28.6523 13.7031 29.8633 13.7031C31.082 13.7031 32.168 13.9258 33.1211 14.3711C34.0742 14.8086 34.8125 15.4297 35.3359 16.2344C35.8672 17.0391 36.1328 17.9531 36.1328 18.9766H32.6172C32.6172 18.1953 32.3711 17.5898 31.8789 17.1602C31.3867 16.7227 30.6953 16.5039 29.8047 16.5039C28.9453 16.5039 28.2773 16.6875 27.8008 17.0547C27.3242 17.4141 27.0859 17.8906 27.0859 18.4844C27.0859 19.0391 27.3633 19.5039 27.918 19.8789C28.4805 20.2539 29.3047 20.6055 30.3906 20.9336C32.3906 21.5352 33.8477 22.2812 34.7617 23.1719C35.6758 24.0625 36.1328 25.1719 36.1328 26.5C36.1328 27.9766 35.5742 29.1367 34.457 29.9805C33.3398 30.8164 31.8359 31.2344 29.9453 31.2344C28.6328 31.2344 27.4375 30.9961 26.3594 30.5195C25.2812 30.0352 24.457 29.375 23.8867 28.5391C23.3242 27.7031 23.043 26.7344 23.043 25.6328H26.5703C26.5703 27.5156 27.6953 28.457 29.9453 28.457C30.7812 28.457 31.4336 28.2891 31.9023 27.9531C32.3711 27.6094 32.6055 27.1328 32.6055 26.5234Z" fill="black"/>
</svg>
