<svg width="44" height="45" viewBox="0 0 44 45" fill="none" xmlns="http://www.w3.org/2000/svg">
<path d="M42.5 22.5C42.5 34.1299 33.2902 43.5 22 43.5C10.7098 43.5 1.5 34.1299 1.5 22.5C1.5 10.8701 10.7098 1.5 22 1.5C33.2902 1.5 42.5 10.8701 42.5 22.5Z" stroke="black" stroke-width="3"/>
<path d="M13.832 24.1562L12.0039 26.125V31H8.48828V13.9375H12.0039V21.6719L13.5508 19.5508L17.8984 13.9375H22.2227L16.1641 21.5195L22.3984 31H18.2148L13.832 24.1562ZM29.6055 21.625L33.1562 13.9375H37L31.3984 24.8125V31H27.8242V24.8125L22.2227 13.9375H26.0781L29.6055 21.625Z" fill="black"/>
</svg>
