<svg width="45" height="45" viewBox="0 0 45 45" fill="none" xmlns="http://www.w3.org/2000/svg">
<path d="M43.5 22.5C43.5 34.1299 34.2902 43.5 23 43.5C11.7098 43.5 2.5 34.1299 2.5 22.5C2.5 10.8701 11.7098 1.5 23 1.5C34.2902 1.5 43.5 10.8701 43.5 22.5Z" stroke="black" stroke-width="3"/>
<path d="M10.8555 13.9375L15.2383 26.3125L19.5977 13.9375H24.2148V31H20.6875V26.3359L21.0391 18.2852L16.4336 31H14.0195L9.42578 18.2969L9.77734 26.3359V31H6.26172V13.9375H10.8555ZM37.5508 23.6055H30.8008V28.1758H38.7227V31H27.2852V13.9375H38.6992V16.7852H30.8008V20.8516H37.5508V23.6055Z" fill="black"/>
</svg>
