<svg width="44" height="45" viewBox="0 0 44 45" fill="none" xmlns="http://www.w3.org/2000/svg">
<path d="M42.5 22.5C42.5 34.1299 33.2902 43.5 22 43.5C10.7098 43.5 1.5 34.1299 1.5 22.5C1.5 10.8701 10.7098 1.5 22 1.5C33.2902 1.5 42.5 10.8701 42.5 22.5Z" stroke="black" stroke-width="3"/>
<path d="M9.80078 13.9375L14.1836 26.3125L18.543 13.9375H23.1602V31H19.6328V26.3359L19.9844 18.2852L15.3789 31H12.9648L8.37109 18.2969L8.72266 26.3359V31H5.20703V13.9375H9.80078ZM26.2305 31V13.9375H31.4805C32.9805 13.9375 34.3203 14.2773 35.5 14.957C36.6875 15.6289 37.6133 16.5898 38.2773 17.8398C38.9414 19.082 39.2734 20.4961 39.2734 22.082V22.8672C39.2734 24.4531 38.9453 25.8633 38.2891 27.0977C37.6406 28.332 36.7227 29.2891 35.5352 29.9688C34.3477 30.6484 33.0078 30.9922 31.5156 31H26.2305ZM29.7461 16.7852V28.1758H31.4453C32.8203 28.1758 33.8711 27.7266 34.5977 26.8281C35.3242 25.9297 35.6953 24.6445 35.7109 22.9727V22.0703C35.7109 20.3359 35.3516 19.0234 34.6328 18.1328C33.9141 17.2344 32.8633 16.7852 31.4805 16.7852H29.7461Z" fill="black"/>
</svg>
