<svg width="44" height="45" viewBox="0 0 44 45" fill="none" xmlns="http://www.w3.org/2000/svg">
<path d="M42.5 22.5C42.5 34.1299 33.2902 43.5 22 43.5C10.7098 43.5 1.5 34.1299 1.5 22.5C1.5 10.8701 10.7098 1.5 22 1.5C33.2902 1.5 42.5 10.8701 42.5 22.5Z" stroke="black" stroke-width="3"/>
<path d="M9.42578 13.9375L13.8086 26.3125L18.168 13.9375H22.7852V31H19.2578V26.3359L19.6094 18.2852L15.0039 31H12.5898L7.99609 18.2969L8.34766 26.3359V31H4.83203V13.9375H9.42578ZM35.6992 27.4844H29.5352L28.3633 31H24.625L30.9766 13.9375H34.2344L40.6211 31H36.8828L35.6992 27.4844ZM30.4844 24.6367H34.75L32.6055 18.25L30.4844 24.6367Z" fill="black"/>
</svg>
