<svg width="44" height="45" viewBox="0 0 44 45" fill="none" xmlns="http://www.w3.org/2000/svg">
<path d="M42.5 22.5C42.5 34.1299 33.2902 43.5 22 43.5C10.7098 43.5 1.5 34.1299 1.5 22.5C1.5 10.8701 10.7098 1.5 22 1.5C33.2902 1.5 42.5 10.8701 42.5 22.5Z" stroke="black" stroke-width="3"/>
<path d="M9.13281 13.9375L13.5156 26.3125L17.875 13.9375H22.4922V31H18.9648V26.3359L19.3164 18.2852L14.7109 31H12.2969L7.70312 18.2969L8.05469 26.3359V31H4.53906V13.9375H9.13281ZM39.4375 31H35.9219L29.0781 19.7734V31H25.5625V13.9375H29.0781L35.9336 25.1875V13.9375H39.4375V31Z" fill="black"/>
</svg>
