<svg width="44" height="45" viewBox="0 0 44 45" fill="none" xmlns="http://www.w3.org/2000/svg">
<path d="M42.5 22.5C42.5 34.1299 33.2902 43.5 22 43.5C10.7098 43.5 1.5 34.1299 1.5 22.5C1.5 10.8701 10.7098 1.5 22 1.5C33.2902 1.5 42.5 10.8701 42.5 22.5Z" stroke="black" stroke-width="3"/>
<path d="M9.32031 12.9375L13.7031 25.3125L18.0625 12.9375H22.6797V30H19.1523V25.3359L19.5039 17.2852L14.8984 30H12.4844L7.89062 17.2969L8.24219 25.3359V30H4.72656V12.9375H9.32031ZM39.7656 21.8555C39.7656 23.5352 39.4688 25.0078 38.875 26.2734C38.2812 27.5391 37.4297 28.5156 36.3203 29.2031C35.2188 29.8906 33.9531 30.2344 32.5234 30.2344C31.1094 30.2344 29.8477 29.8945 28.7383 29.2148C27.6289 28.5352 26.7695 27.5664 26.1602 26.3086C25.5508 25.043 25.2422 23.5898 25.2344 21.9492V21.1055C25.2344 19.4258 25.5352 17.9492 26.1367 16.6758C26.7461 15.3945 27.6016 14.4141 28.7031 13.7344C29.8125 13.0469 31.0781 12.7031 32.5 12.7031C33.9219 12.7031 35.1836 13.0469 36.2852 13.7344C37.3945 14.4141 38.25 15.3945 38.8516 16.6758C39.4609 17.9492 39.7656 19.4219 39.7656 21.0938V21.8555ZM36.2031 21.082C36.2031 19.293 35.8828 17.9336 35.2422 17.0039C34.6016 16.0742 33.6875 15.6094 32.5 15.6094C31.3203 15.6094 30.4102 16.0703 29.7695 16.9922C29.1289 17.9062 28.8047 19.25 28.7969 21.0234V21.8555C28.7969 23.5977 29.1172 24.9492 29.7578 25.9102C30.3984 26.8711 31.3203 27.3516 32.5234 27.3516C33.7031 27.3516 34.6094 26.8906 35.2422 25.9688C35.875 25.0391 36.1953 23.6875 36.2031 21.9141V21.082Z" fill="black"/>
</svg>
