<svg width="44" height="45" viewBox="0 0 44 45" fill="none" xmlns="http://www.w3.org/2000/svg">
<path d="M42.5 22.5C42.5 34.1299 33.2902 43.5 22 43.5C10.7098 43.5 1.5 34.1299 1.5 22.5C1.5 10.8701 10.7098 1.5 22 1.5C33.2902 1.5 42.5 10.8701 42.5 22.5Z" stroke="black" stroke-width="3"/>
<path d="M10.2227 13.9375L14.6055 26.3125L18.9648 13.9375H23.582V31H20.0547V26.3359L20.4062 18.2852L15.8008 31H13.3867L8.79297 18.2969L9.14453 26.3359V31H5.62891V13.9375H10.2227ZM35.5 26.5234C35.5 25.8594 35.2656 25.3516 34.7969 25C34.3281 24.6406 33.4844 24.2656 32.2656 23.875C31.0469 23.4766 30.082 23.0859 29.3711 22.7031C27.4336 21.6562 26.4648 20.2461 26.4648 18.4727C26.4648 17.5508 26.7227 16.7305 27.2383 16.0117C27.7617 15.2852 28.5078 14.7188 29.4766 14.3125C30.4531 13.9062 31.5469 13.7031 32.7578 13.7031C33.9766 13.7031 35.0625 13.9258 36.0156 14.3711C36.9688 14.8086 37.707 15.4297 38.2305 16.2344C38.7617 17.0391 39.0273 17.9531 39.0273 18.9766H35.5117C35.5117 18.1953 35.2656 17.5898 34.7734 17.1602C34.2812 16.7227 33.5898 16.5039 32.6992 16.5039C31.8398 16.5039 31.1719 16.6875 30.6953 17.0547C30.2188 17.4141 29.9805 17.8906 29.9805 18.4844C29.9805 19.0391 30.2578 19.5039 30.8125 19.8789C31.375 20.2539 32.1992 20.6055 33.2852 20.9336C35.2852 21.5352 36.7422 22.2812 37.6562 23.1719C38.5703 24.0625 39.0273 25.1719 39.0273 26.5C39.0273 27.9766 38.4688 29.1367 37.3516 29.9805C36.2344 30.8164 34.7305 31.2344 32.8398 31.2344C31.5273 31.2344 30.332 30.9961 29.2539 30.5195C28.1758 30.0352 27.3516 29.375 26.7812 28.5391C26.2188 27.7031 25.9375 26.7344 25.9375 25.6328H29.4648C29.4648 27.5156 30.5898 28.457 32.8398 28.457C33.6758 28.457 34.3281 28.2891 34.7969 27.9531C35.2656 27.6094 35.5 27.1328 35.5 26.5234Z" fill="black"/>
</svg>
