<svg width="44" height="45" viewBox="0 0 44 45" fill="none" xmlns="http://www.w3.org/2000/svg">
<path d="M42.5 22.5C42.5 34.1299 33.2902 43.5 22 43.5C10.7098 43.5 1.5 34.1299 1.5 22.5C1.5 10.8701 10.7098 1.5 22 1.5C33.2902 1.5 42.5 10.8701 42.5 22.5Z" stroke="black" stroke-width="3"/>
<path d="M10.3516 13.9375L14.7344 26.3125L19.0938 13.9375H23.7109V31H20.1836V26.3359L20.5352 18.2852L15.9297 31H13.5156L8.92188 18.2969L9.27344 26.3359V31H5.75781V13.9375H10.3516ZM39.2734 16.7852H34.0469V31H30.5312V16.7852H25.375V13.9375H39.2734V16.7852Z" fill="black"/>
</svg>
