<svg width="44" height="45" viewBox="0 0 44 45" fill="none" xmlns="http://www.w3.org/2000/svg">
<path d="M42.5 22.5C42.5 34.1299 33.2902 43.5 22 43.5C10.7098 43.5 1.5 34.1299 1.5 22.5C1.5 10.8701 10.7098 1.5 22 1.5C33.2902 1.5 42.5 10.8701 42.5 22.5Z" stroke="black" stroke-width="3"/>
<path d="M22.2227 31H18.707L11.8633 19.7734V31H8.34766V13.9375H11.8633L18.7188 25.1875V13.9375H22.2227V31ZM32.1719 13.9375H35.6875V25.75C35.6875 26.8359 35.4453 27.7969 34.9609 28.6328C34.4844 29.4609 33.8086 30.1016 32.9336 30.5547C32.0586 31.0078 31.0703 31.2344 29.9688 31.2344C28.1641 31.2344 26.7578 30.7773 25.75 29.8633C24.7422 28.9414 24.2383 27.6406 24.2383 25.9609H27.7773C27.7773 26.7969 27.9531 27.4141 28.3047 27.8125C28.6562 28.2109 29.2109 28.4102 29.9688 28.4102C30.6406 28.4102 31.1758 28.1797 31.5742 27.7188C31.9727 27.2578 32.1719 26.6016 32.1719 25.75V13.9375Z" fill="black"/>
</svg>
