<svg width="44" height="45" viewBox="0 0 44 45" fill="none" xmlns="http://www.w3.org/2000/svg">
<path d="M42.5 22.5C42.5 34.1299 33.2902 43.5 22 43.5C10.7098 43.5 1.5 34.1299 1.5 22.5C1.5 10.8701 10.7098 1.5 22 1.5C33.2902 1.5 42.5 10.8701 42.5 22.5Z" stroke="black" stroke-width="3"/>
<path d="M18.4141 31H14.8984L8.05469 19.7734V31H4.53906V13.9375H8.05469L14.9102 25.1875V13.9375H18.4141V31ZM26.0781 13.9375L30.4609 26.3125L34.8203 13.9375H39.4375V31H35.9102V26.3359L36.2617 18.2852L31.6562 31H29.2422L24.6484 18.2969L25 26.3359V31H21.4844V13.9375H26.0781Z" fill="black"/>
</svg>
