<svg width="44" height="45" viewBox="0 0 44 45" fill="none" xmlns="http://www.w3.org/2000/svg">
<path d="M42.5 22.5C42.5 34.1299 33.2902 43.5 22 43.5C10.7098 43.5 1.5 34.1299 1.5 22.5C1.5 10.8701 10.7098 1.5 22 1.5C33.2902 1.5 42.5 10.8701 42.5 22.5Z" stroke="black" stroke-width="3"/>
<path d="M21.0742 31H17.5586L10.7148 19.7734V31H7.19922V13.9375H10.7148L17.5703 25.1875V13.9375H21.0742V31ZM37.5391 25.3164C37.4062 27.1523 36.7266 28.5977 35.5 29.6523C34.2812 30.707 32.6719 31.2344 30.6719 31.2344C28.4844 31.2344 26.7617 30.5 25.5039 29.0312C24.2539 27.5547 23.6289 25.5312 23.6289 22.9609V21.918C23.6289 20.2773 23.918 18.832 24.4961 17.582C25.0742 16.332 25.8984 15.375 26.9688 14.7109C28.0469 14.0391 29.2969 13.7031 30.7188 13.7031C32.6875 13.7031 34.2734 14.2305 35.4766 15.2852C36.6797 16.3398 37.375 17.8203 37.5625 19.7266H34.0469C33.9609 18.625 33.6523 17.8281 33.1211 17.3359C32.5977 16.8359 31.7969 16.5859 30.7188 16.5859C29.5469 16.5859 28.668 17.0078 28.082 17.8516C27.5039 18.6875 27.207 19.9883 27.1914 21.7539V23.043C27.1914 24.8867 27.4688 26.2344 28.0234 27.0859C28.5859 27.9375 29.4688 28.3633 30.6719 28.3633C31.7578 28.3633 32.5664 28.1172 33.0977 27.625C33.6367 27.125 33.9453 26.3555 34.0234 25.3164H37.5391Z" fill="black"/>
</svg>
