<svg width="44" height="45" viewBox="0 0 44 45" fill="none" xmlns="http://www.w3.org/2000/svg">
<path d="M42.5 22.5C42.5 34.1299 33.2902 43.5 22 43.5C10.7098 43.5 1.5 34.1299 1.5 22.5C1.5 10.8701 10.7098 1.5 22 1.5C33.2902 1.5 42.5 10.8701 42.5 22.5Z" stroke="black" stroke-width="3"/>
<path d="M21.1211 31H17.6055L10.7617 19.7734V31H7.24609V13.9375H10.7617L17.6172 25.1875V13.9375H21.1211V31ZM24.1914 31V13.9375H29.4414C30.9414 13.9375 32.2812 14.2773 33.4609 14.957C34.6484 15.6289 35.5742 16.5898 36.2383 17.8398C36.9023 19.082 37.2344 20.4961 37.2344 22.082V22.8672C37.2344 24.4531 36.9062 25.8633 36.25 27.0977C35.6016 28.332 34.6836 29.2891 33.4961 29.9688C32.3086 30.6484 30.9688 30.9922 29.4766 31H24.1914ZM27.707 16.7852V28.1758H29.4062C30.7812 28.1758 31.832 27.7266 32.5586 26.8281C33.2852 25.9297 33.6562 24.6445 33.6719 22.9727V22.0703C33.6719 20.3359 33.3125 19.0234 32.5938 18.1328C31.875 17.2344 30.8242 16.7852 29.4414 16.7852H27.707Z" fill="black"/>
</svg>
