<svg width="45" height="45" viewBox="0 0 45 45" fill="none" xmlns="http://www.w3.org/2000/svg">
<path d="M43.5 22.5C43.5 34.1299 34.2902 43.5 23 43.5C11.7098 43.5 2.5 34.1299 2.5 22.5C2.5 10.8701 11.7098 1.5 23 1.5C34.2902 1.5 43.5 10.8701 43.5 22.5Z" stroke="black" stroke-width="3"/>
<path d="M20.7695 22.8555C20.7695 24.5352 20.4727 26.0078 19.8789 27.2734C19.2852 28.5391 18.4336 29.5156 17.3242 30.2031C16.2227 30.8906 14.957 31.2344 13.5273 31.2344C12.1133 31.2344 10.8516 30.8945 9.74219 30.2148C8.63281 29.5352 7.77344 28.5664 7.16406 27.3086C6.55469 26.043 6.24609 24.5898 6.23828 22.9492V22.1055C6.23828 20.4258 6.53906 18.9492 7.14062 17.6758C7.75 16.3945 8.60547 15.4141 9.70703 14.7344C10.8164 14.0469 12.082 13.7031 13.5039 13.7031C14.9258 13.7031 16.1875 14.0469 17.2891 14.7344C18.3984 15.4141 19.2539 16.3945 19.8555 17.6758C20.4648 18.9492 20.7695 20.4219 20.7695 22.0938V22.8555ZM17.207 22.082C17.207 20.293 16.8867 18.9336 16.2461 18.0039C15.6055 17.0742 14.6914 16.6094 13.5039 16.6094C12.3242 16.6094 11.4141 17.0703 10.7734 17.9922C10.1328 18.9062 9.80859 20.25 9.80078 22.0234V22.8555C9.80078 24.5977 10.1211 25.9492 10.7617 26.9102C11.4023 27.8711 12.3242 28.3516 13.5273 28.3516C14.707 28.3516 15.6133 27.8906 16.2461 26.9688C16.8789 26.0391 17.1992 24.6875 17.207 22.9141V22.082ZM37.2109 31H33.6953V23.6875H26.8398V31H23.3242V13.9375H26.8398V20.8516H33.6953V13.9375H37.2109V31Z" fill="black"/>
</svg>
