<svg width="45" height="45" viewBox="0 0 45 45" fill="none" xmlns="http://www.w3.org/2000/svg">
<path d="M43.5 22.5C43.5 34.1299 34.2902 43.5 23 43.5C11.7098 43.5 2.5 34.1299 2.5 22.5C2.5 10.8701 11.7098 1.5 23 1.5C34.2902 1.5 43.5 10.8701 43.5 22.5Z" stroke="black" stroke-width="3"/>
<path d="M21.6367 22.8555C21.6367 24.5352 21.3398 26.0078 20.7461 27.2734C20.1523 28.5391 19.3008 29.5156 18.1914 30.2031C17.0898 30.8906 15.8242 31.2344 14.3945 31.2344C12.9805 31.2344 11.7188 30.8945 10.6094 30.2148C9.5 29.5352 8.64062 28.5664 8.03125 27.3086C7.42188 26.043 7.11328 24.5898 7.10547 22.9492V22.1055C7.10547 20.4258 7.40625 18.9492 8.00781 17.6758C8.61719 16.3945 9.47266 15.4141 10.5742 14.7344C11.6836 14.0469 12.9492 13.7031 14.3711 13.7031C15.793 13.7031 17.0547 14.0469 18.1562 14.7344C19.2656 15.4141 20.1211 16.3945 20.7227 17.6758C21.332 18.9492 21.6367 20.4219 21.6367 22.0938V22.8555ZM18.0742 22.082C18.0742 20.293 17.7539 18.9336 17.1133 18.0039C16.4727 17.0742 15.5586 16.6094 14.3711 16.6094C13.1914 16.6094 12.2812 17.0703 11.6406 17.9922C11 18.9062 10.6758 20.25 10.668 22.0234V22.8555C10.668 24.5977 10.9883 25.9492 11.6289 26.9102C12.2695 27.8711 13.1914 28.3516 14.3945 28.3516C15.5742 28.3516 16.4805 27.8906 17.1133 26.9688C17.7461 26.0391 18.0664 24.6875 18.0742 22.9141V22.082ZM29.5352 24.1562L27.707 26.125V31H24.1914V13.9375H27.707V21.6719L29.2539 19.5508L33.6016 13.9375H37.9258L31.8672 21.5195L38.1016 31H33.918L29.5352 24.1562Z" fill="black"/>
</svg>
