<svg width="44" height="45" viewBox="0 0 44 45" fill="none" xmlns="http://www.w3.org/2000/svg">
<path d="M42.5 22.5C42.5 34.1299 33.2902 43.5 22 43.5C10.7098 43.5 1.5 34.1299 1.5 22.5C1.5 10.8701 10.7098 1.5 22 1.5C33.2902 1.5 42.5 10.8701 42.5 22.5Z" stroke="black" stroke-width="3"/>
<path d="M21.5898 22.8555C21.5898 24.5352 21.293 26.0078 20.6992 27.2734C20.1055 28.5391 19.2539 29.5156 18.1445 30.2031C17.043 30.8906 15.7773 31.2344 14.3477 31.2344C12.9336 31.2344 11.6719 30.8945 10.5625 30.2148C9.45312 29.5352 8.59375 28.5664 7.98438 27.3086C7.375 26.043 7.06641 24.5898 7.05859 22.9492V22.1055C7.05859 20.4258 7.35938 18.9492 7.96094 17.6758C8.57031 16.3945 9.42578 15.4141 10.5273 14.7344C11.6367 14.0469 12.9023 13.7031 14.3242 13.7031C15.7461 13.7031 17.0078 14.0469 18.1094 14.7344C19.2188 15.4141 20.0742 16.3945 20.6758 17.6758C21.2852 18.9492 21.5898 20.4219 21.5898 22.0938V22.8555ZM18.0273 22.082C18.0273 20.293 17.707 18.9336 17.0664 18.0039C16.4258 17.0742 15.5117 16.6094 14.3242 16.6094C13.1445 16.6094 12.2344 17.0703 11.5938 17.9922C10.9531 18.9062 10.6289 20.25 10.6211 22.0234V22.8555C10.6211 24.5977 10.9414 25.9492 11.582 26.9102C12.2227 27.8711 13.1445 28.3516 14.3477 28.3516C15.5273 28.3516 16.4336 27.8906 17.0664 26.9688C17.6992 26.0391 18.0195 24.6875 18.0273 22.9141V22.082ZM30.4609 24.7539H27.6602V31H24.1445V13.9375H30.4844C32.5 13.9375 34.0547 14.3867 35.1484 15.2852C36.2422 16.1836 36.7891 17.4531 36.7891 19.0938C36.7891 20.2578 36.5352 21.2305 36.0273 22.0117C35.5273 22.7852 34.7656 23.4023 33.7422 23.8633L37.4336 30.8359V31H33.6602L30.4609 24.7539ZM27.6602 21.9062H30.4961C31.3789 21.9062 32.0625 21.6836 32.5469 21.2383C33.0312 20.7852 33.2734 20.1641 33.2734 19.375C33.2734 18.5703 33.043 17.9375 32.582 17.4766C32.1289 17.0156 31.4297 16.7852 30.4844 16.7852H27.6602V21.9062Z" fill="black"/>
</svg>
