<svg width="44" height="45" viewBox="0 0 44 45" fill="none" xmlns="http://www.w3.org/2000/svg">
<path d="M42.5 22.5C42.5 34.1299 33.2902 43.5 22 43.5C10.7098 43.5 1.5 34.1299 1.5 22.5C1.5 10.8701 10.7098 1.5 22 1.5C33.2902 1.5 42.5 10.8701 42.5 22.5Z" stroke="black" stroke-width="3"/>
<path d="M12.2617 23.9883V30H8.74609V12.9375H15.4023C16.6836 12.9375 17.8086 13.1719 18.7773 13.6406C19.7539 14.1094 20.5039 14.7773 21.0273 15.6445C21.5508 16.5039 21.8125 17.4844 21.8125 18.5859C21.8125 20.2578 21.2383 21.5781 20.0898 22.5469C18.9492 23.5078 17.3672 23.9883 15.3438 23.9883H12.2617ZM12.2617 21.1406H15.4023C16.332 21.1406 17.0391 20.9219 17.5234 20.4844C18.0156 20.0469 18.2617 19.4219 18.2617 18.6094C18.2617 17.7734 18.0156 17.0977 17.5234 16.582C17.0312 16.0664 16.3516 15.8008 15.4844 15.7852H12.2617V21.1406ZM31.7852 26.4844H25.6211L24.4492 30H20.7109L27.0625 12.9375H30.3203L36.707 30H32.9688L31.7852 26.4844ZM26.5703 23.6367H30.8359L28.6914 17.25L26.5703 23.6367Z" fill="black"/>
</svg>
