<svg width="44" height="45" viewBox="0 0 44 45" fill="none" xmlns="http://www.w3.org/2000/svg">
<path d="M42.5 22.5C42.5 34.1299 33.2902 43.5 22 43.5C10.7098 43.5 1.5 34.1299 1.5 22.5C1.5 10.8701 10.7098 1.5 22 1.5C33.2902 1.5 42.5 10.8701 42.5 22.5Z" stroke="black" stroke-width="3"/>
<path d="M11.6289 24.9883V31H8.11328V13.9375H14.7695C16.0508 13.9375 17.1758 14.1719 18.1445 14.6406C19.1211 15.1094 19.8711 15.7773 20.3945 16.6445C20.918 17.5039 21.1797 18.4844 21.1797 19.5859C21.1797 21.2578 20.6055 22.5781 19.457 23.5469C18.3164 24.5078 16.7344 24.9883 14.7109 24.9883H11.6289ZM11.6289 22.1406H14.7695C15.6992 22.1406 16.4062 21.9219 16.8906 21.4844C17.3828 21.0469 17.6289 20.4219 17.6289 19.6094C17.6289 18.7734 17.3828 18.0977 16.8906 17.582C16.3984 17.0664 15.7188 16.8008 14.8516 16.7852H11.6289V22.1406ZM29.9219 24.7539H27.1211V31H23.6055V13.9375H29.9453C31.9609 13.9375 33.5156 14.3867 34.6094 15.2852C35.7031 16.1836 36.25 17.4531 36.25 19.0938C36.25 20.2578 35.9961 21.2305 35.4883 22.0117C34.9883 22.7852 34.2266 23.4023 33.2031 23.8633L36.8945 30.8359V31H33.1211L29.9219 24.7539ZM27.1211 21.9062H29.957C30.8398 21.9062 31.5234 21.6836 32.0078 21.2383C32.4922 20.7852 32.7344 20.1641 32.7344 19.375C32.7344 18.5703 32.5039 17.9375 32.043 17.4766C31.5898 17.0156 30.8906 16.7852 29.9453 16.7852H27.1211V21.9062Z" fill="black"/>
</svg>
