<svg width="74" height="53" viewBox="0 0 74 53" fill="none" xmlns="http://www.w3.org/2000/svg">
<line x1="3.85272" y1="1.5" x2="68.7985" y2="1.5" stroke="white" stroke-width="3"/>
<line x1="3.85272" y1="51.5" x2="68.7985" y2="51.5" stroke="white" stroke-width="3"/>
<line x1="1.5" y1="3.58823" x2="1.5" y2="50.0588" stroke="white" stroke-width="3"/>
<line x1="72.5" y1="3.58823" x2="72.5" y2="50.0588" stroke="white" stroke-width="3"/>
<path d="M4.88867 24V14.0469H8.375C9.58268 14.0469 10.4987 14.2793 11.123 14.7441C11.7474 15.2044 12.0596 15.8812 12.0596 16.7744C12.0596 17.262 11.9342 17.6927 11.6836 18.0664C11.4329 18.4355 11.0843 18.7067 10.6377 18.8799C11.1481 19.0075 11.5492 19.265 11.8408 19.6523C12.137 20.0397 12.2852 20.5137 12.2852 21.0742C12.2852 22.0312 11.9798 22.7559 11.3691 23.248C10.7585 23.7402 9.88802 23.9909 8.75781 24H4.88867ZM6.93945 19.666V22.3525H8.69629C9.17936 22.3525 9.55534 22.2386 9.82422 22.0107C10.0977 21.7783 10.2344 21.4593 10.2344 21.0537C10.2344 20.1423 9.7627 19.6797 8.81934 19.666H6.93945ZM6.93945 18.2168H8.45703C9.49154 18.1986 10.0088 17.7861 10.0088 16.9795C10.0088 16.5283 9.87663 16.2048 9.6123 16.0088C9.35254 15.8083 8.9401 15.708 8.375 15.708H6.93945V18.2168ZM17.9863 24C17.8952 23.8223 17.8291 23.6012 17.7881 23.3369C17.3096 23.8701 16.6875 24.1367 15.9219 24.1367C15.1973 24.1367 14.5957 23.9271 14.1172 23.5078C13.6432 23.0885 13.4062 22.5599 13.4062 21.9219C13.4062 21.138 13.6956 20.5365 14.2744 20.1172C14.8577 19.6979 15.6986 19.486 16.7969 19.4814H17.7061V19.0576C17.7061 18.7158 17.6172 18.4424 17.4395 18.2373C17.2663 18.0322 16.9906 17.9297 16.6123 17.9297C16.2796 17.9297 16.0176 18.0094 15.8262 18.1689C15.6393 18.3285 15.5459 18.5472 15.5459 18.8252H13.5703C13.5703 18.3968 13.7025 18.0003 13.9668 17.6357C14.2311 17.2712 14.6048 16.9863 15.0879 16.7812C15.571 16.5716 16.1133 16.4668 16.7148 16.4668C17.6263 16.4668 18.3486 16.6969 18.8818 17.1572C19.4196 17.613 19.6885 18.2555 19.6885 19.085V22.291C19.693 22.9928 19.791 23.5238 19.9824 23.8838V24H17.9863ZM16.3525 22.626C16.6442 22.626 16.9131 22.5622 17.1592 22.4346C17.4053 22.3024 17.5876 22.127 17.7061 21.9082V20.6367H16.9678C15.9788 20.6367 15.4525 20.9785 15.3887 21.6621L15.3818 21.7783C15.3818 22.0244 15.4684 22.2272 15.6416 22.3867C15.8148 22.5462 16.0518 22.626 16.3525 22.626ZM24.2822 22.5439C24.6468 22.5439 24.943 22.4437 25.1709 22.2432C25.3988 22.0426 25.5173 21.776 25.5264 21.4434H27.3789C27.3743 21.9447 27.2376 22.4049 26.9688 22.8242C26.6999 23.2389 26.3307 23.5625 25.8613 23.7949C25.3965 24.0228 24.8815 24.1367 24.3164 24.1367C23.2591 24.1367 22.4251 23.8018 21.8145 23.1318C21.2038 22.4574 20.8984 21.5277 20.8984 20.3428V20.2129C20.8984 19.0736 21.2015 18.1644 21.8076 17.4854C22.4137 16.8063 23.2454 16.4668 24.3027 16.4668C25.2279 16.4668 25.9684 16.7311 26.5244 17.2598C27.085 17.7839 27.3698 18.4834 27.3789 19.3584H25.5264C25.5173 18.9756 25.3988 18.6657 25.1709 18.4287C24.943 18.1872 24.6423 18.0664 24.2686 18.0664C23.8083 18.0664 23.4596 18.235 23.2227 18.5723C22.9902 18.9049 22.874 19.4473 22.874 20.1992V20.4043C22.874 21.1654 22.9902 21.7122 23.2227 22.0449C23.4551 22.3776 23.8083 22.5439 24.2822 22.5439ZM31.1934 21.0332L30.4824 21.7441V24H28.5068V13.5H30.4824V19.3174L30.8652 18.8252L32.7588 16.6035H35.1309L32.458 19.6865L35.3633 24H33.0938L31.1934 21.0332ZM41.8369 14.7852V16.6035H43.1016V18.0527H41.8369V21.7441C41.8369 22.0176 41.8893 22.2135 41.9941 22.332C42.099 22.4505 42.2995 22.5098 42.5957 22.5098C42.8145 22.5098 43.0081 22.4938 43.1768 22.4619V23.959C42.7894 24.0775 42.3906 24.1367 41.9805 24.1367C40.5951 24.1367 39.8887 23.4372 39.8613 22.0381V18.0527H38.7812V16.6035H39.8613V14.7852H41.8369ZM43.6895 20.2334C43.6895 19.4997 43.8307 18.8457 44.1133 18.2715C44.3958 17.6973 44.8014 17.2529 45.3301 16.9385C45.8633 16.624 46.4808 16.4668 47.1826 16.4668C48.1807 16.4668 48.9941 16.7721 49.623 17.3828C50.2565 17.9935 50.6097 18.8229 50.6826 19.8711L50.6963 20.377C50.6963 21.5117 50.3796 22.4232 49.7461 23.1113C49.1126 23.7949 48.2627 24.1367 47.1963 24.1367C46.1299 24.1367 45.2777 23.7949 44.6396 23.1113C44.0062 22.4277 43.6895 21.498 43.6895 20.3223V20.2334ZM45.665 20.377C45.665 21.0788 45.7972 21.6165 46.0615 21.9902C46.3258 22.3594 46.7041 22.5439 47.1963 22.5439C47.6748 22.5439 48.0485 22.3617 48.3174 21.9971C48.5863 21.6279 48.7207 21.04 48.7207 20.2334C48.7207 19.5452 48.5863 19.012 48.3174 18.6338C48.0485 18.2555 47.6702 18.0664 47.1826 18.0664C46.6995 18.0664 46.3258 18.2555 46.0615 18.6338C45.7972 19.0075 45.665 19.5885 45.665 20.377ZM6.93945 36.4932V40H4.88867V30.0469H8.77148C9.51888 30.0469 10.1751 30.1836 10.7402 30.457C11.3099 30.7305 11.7474 31.1201 12.0527 31.626C12.3581 32.1273 12.5107 32.6992 12.5107 33.3418C12.5107 34.3171 12.1758 35.0872 11.5059 35.6523C10.8405 36.2129 9.91764 36.4932 8.7373 36.4932H6.93945ZM6.93945 34.832H8.77148C9.3138 34.832 9.72624 34.7044 10.0088 34.4492C10.2959 34.194 10.4395 33.8294 10.4395 33.3555C10.4395 32.8678 10.2959 32.4736 10.0088 32.1729C9.72168 31.8721 9.3252 31.7171 8.81934 31.708H6.93945V34.832ZM21.6777 37.1289L23.0176 30.0469H25.0615L22.8535 40H20.7891L19.1689 33.3418L17.5488 40H15.4844L13.2764 30.0469H15.3203L16.667 37.1152L18.3076 30.0469H20.0439L21.6777 37.1289ZM31.7129 38.3525H36.0674V40H29.6621V30.0469H31.7129V38.3525ZM39.2051 40H37.2227V32.6035H39.2051V40ZM37.1064 30.6895C37.1064 30.3932 37.2044 30.1494 37.4004 29.958C37.6009 29.7666 37.8721 29.6709 38.2139 29.6709C38.5511 29.6709 38.82 29.7666 39.0205 29.958C39.221 30.1494 39.3213 30.3932 39.3213 30.6895C39.3213 30.9902 39.2188 31.2363 39.0137 31.4277C38.8132 31.6191 38.5465 31.7148 38.2139 31.7148C37.8812 31.7148 37.6123 31.6191 37.4072 31.4277C37.2067 31.2363 37.1064 30.9902 37.1064 30.6895ZM44.8447 37.9561C44.8447 37.7145 44.724 37.5254 44.4824 37.3887C44.2454 37.2474 43.8626 37.1221 43.334 37.0127C41.5749 36.6436 40.6953 35.8962 40.6953 34.7705C40.6953 34.1143 40.9665 33.5674 41.5088 33.1299C42.0557 32.6878 42.7689 32.4668 43.6484 32.4668C44.5872 32.4668 45.3369 32.6878 45.8975 33.1299C46.4626 33.5719 46.7451 34.1462 46.7451 34.8525H44.7695C44.7695 34.57 44.6784 34.3376 44.4961 34.1553C44.3138 33.9684 44.029 33.875 43.6416 33.875C43.3089 33.875 43.0514 33.9502 42.8691 34.1006C42.6868 34.251 42.5957 34.4424 42.5957 34.6748C42.5957 34.8936 42.6982 35.0713 42.9033 35.208C43.113 35.3402 43.4639 35.4564 43.9561 35.5566C44.4482 35.6523 44.863 35.7617 45.2002 35.8848C46.2438 36.2676 46.7656 36.9307 46.7656 37.874C46.7656 38.5485 46.4762 39.0954 45.8975 39.5146C45.3187 39.9294 44.5713 40.1367 43.6553 40.1367C43.0355 40.1367 42.484 40.0273 42.001 39.8086C41.5225 39.5853 41.1465 39.2822 40.873 38.8994C40.5996 38.512 40.4629 38.0951 40.4629 37.6484H42.3359C42.3542 37.9993 42.484 38.2682 42.7256 38.4551C42.9671 38.6419 43.2907 38.7354 43.6963 38.7354C44.0745 38.7354 44.3594 38.6647 44.5508 38.5234C44.7467 38.3776 44.8447 38.1885 44.8447 37.9561ZM50.4092 30.7852V32.6035H51.6738V34.0527H50.4092V37.7441C50.4092 38.0176 50.4616 38.2135 50.5664 38.332C50.6712 38.4505 50.8717 38.5098 51.168 38.5098C51.3867 38.5098 51.5804 38.4938 51.749 38.4619V39.959C51.3617 40.0775 50.9629 40.1367 50.5527 40.1367C49.1673 40.1367 48.4609 39.4372 48.4336 38.0381V34.0527H47.3535V32.6035H48.4336V30.7852H50.4092Z" fill="white"/>
</svg>
