<svg width="45" height="45" viewBox="0 0 45 45" fill="none" xmlns="http://www.w3.org/2000/svg">
<path d="M43.5 22.5C43.5 34.1299 34.2902 43.5 23 43.5C11.7098 43.5 2.5 34.1299 2.5 22.5C2.5 10.8701 11.7098 1.5 23 1.5C34.2902 1.5 43.5 10.8701 43.5 22.5Z" stroke="black" stroke-width="3"/>
<path d="M18.6719 24.7539H15.8711V31H12.3555V13.9375H18.6953C20.7109 13.9375 22.2656 14.3867 23.3594 15.2852C24.4531 16.1836 25 17.4531 25 19.0938C25 20.2578 24.7461 21.2305 24.2383 22.0117C23.7383 22.7852 22.9766 23.4023 21.9531 23.8633L25.6445 30.8359V31H21.8711L18.6719 24.7539ZM15.8711 21.9062H18.707C19.5898 21.9062 20.2734 21.6836 20.7578 21.2383C21.2422 20.7852 21.4844 20.1641 21.4844 19.375C21.4844 18.5703 21.2539 17.9375 20.793 17.4766C20.3398 17.0156 19.6406 16.7852 18.6953 16.7852H15.8711V21.9062ZM31.4219 31H27.9062V13.9375H31.4219V31Z" fill="black"/>
</svg>
