<svg width="45" height="45" viewBox="0 0 45 45" fill="none" xmlns="http://www.w3.org/2000/svg">
<path d="M43.5 22.5C43.5 34.1299 34.2902 43.5 23 43.5C11.7098 43.5 2.5 34.1299 2.5 22.5C2.5 10.8701 11.7098 1.5 23 1.5C34.2902 1.5 43.5 10.8701 43.5 22.5Z" stroke="black" stroke-width="3"/>
<path d="M17.1367 26.5234C17.1367 25.8594 16.9023 25.3516 16.4336 25C15.9648 24.6406 15.1211 24.2656 13.9023 23.875C12.6836 23.4766 11.7188 23.0859 11.0078 22.7031C9.07031 21.6562 8.10156 20.2461 8.10156 18.4727C8.10156 17.5508 8.35938 16.7305 8.875 16.0117C9.39844 15.2852 10.1445 14.7188 11.1133 14.3125C12.0898 13.9062 13.1836 13.7031 14.3945 13.7031C15.6133 13.7031 16.6992 13.9258 17.6523 14.3711C18.6055 14.8086 19.3438 15.4297 19.8672 16.2344C20.3984 17.0391 20.6641 17.9531 20.6641 18.9766H17.1484C17.1484 18.1953 16.9023 17.5898 16.4102 17.1602C15.918 16.7227 15.2266 16.5039 14.3359 16.5039C13.4766 16.5039 12.8086 16.6875 12.332 17.0547C11.8555 17.4141 11.6172 17.8906 11.6172 18.4844C11.6172 19.0391 11.8945 19.5039 12.4492 19.8789C13.0117 20.2539 13.8359 20.6055 14.9219 20.9336C16.9219 21.5352 18.3789 22.2812 19.293 23.1719C20.207 24.0625 20.6641 25.1719 20.6641 26.5C20.6641 27.9766 20.1055 29.1367 18.9883 29.9805C17.8711 30.8164 16.3672 31.2344 14.4766 31.2344C13.1641 31.2344 11.9688 30.9961 10.8906 30.5195C9.8125 30.0352 8.98828 29.375 8.41797 28.5391C7.85547 27.7031 7.57422 26.7344 7.57422 25.6328H11.1016C11.1016 27.5156 12.2266 28.457 14.4766 28.457C15.3125 28.457 15.9648 28.2891 16.4336 27.9531C16.9023 27.6094 17.1367 27.1328 17.1367 26.5234ZM36.4492 25.3164C36.3164 27.1523 35.6367 28.5977 34.4102 29.6523C33.1914 30.707 31.582 31.2344 29.582 31.2344C27.3945 31.2344 25.6719 30.5 24.4141 29.0312C23.1641 27.5547 22.5391 25.5312 22.5391 22.9609V21.918C22.5391 20.2773 22.8281 18.832 23.4062 17.582C23.9844 16.332 24.8086 15.375 25.8789 14.7109C26.957 14.0391 28.207 13.7031 29.6289 13.7031C31.5977 13.7031 33.1836 14.2305 34.3867 15.2852C35.5898 16.3398 36.2852 17.8203 36.4727 19.7266H32.957C32.8711 18.625 32.5625 17.8281 32.0312 17.3359C31.5078 16.8359 30.707 16.5859 29.6289 16.5859C28.457 16.5859 27.5781 17.0078 26.9922 17.8516C26.4141 18.6875 26.1172 19.9883 26.1016 21.7539V23.043C26.1016 24.8867 26.3789 26.2344 26.9336 27.0859C27.4961 27.9375 28.3789 28.3633 29.582 28.3633C30.668 28.3633 31.4766 28.1172 32.0078 27.625C32.5469 27.125 32.8555 26.3555 32.9336 25.3164H36.4492Z" fill="black"/>
</svg>
