<svg width="44" height="45" viewBox="0 0 44 45" fill="none" xmlns="http://www.w3.org/2000/svg">
<path d="M42.5 22.5C42.5 34.1299 33.2902 43.5 22 43.5C10.7098 43.5 1.5 34.1299 1.5 22.5C1.5 10.8701 10.7098 1.5 22 1.5C33.2902 1.5 42.5 10.8701 42.5 22.5Z" stroke="black" stroke-width="3"/>
<path d="M17.1836 26.5234C17.1836 25.8594 16.9492 25.3516 16.4805 25C16.0117 24.6406 15.168 24.2656 13.9492 23.875C12.7305 23.4766 11.7656 23.0859 11.0547 22.7031C9.11719 21.6562 8.14844 20.2461 8.14844 18.4727C8.14844 17.5508 8.40625 16.7305 8.92188 16.0117C9.44531 15.2852 10.1914 14.7188 11.1602 14.3125C12.1367 13.9062 13.2305 13.7031 14.4414 13.7031C15.6602 13.7031 16.7461 13.9258 17.6992 14.3711C18.6523 14.8086 19.3906 15.4297 19.9141 16.2344C20.4453 17.0391 20.7109 17.9531 20.7109 18.9766H17.1953C17.1953 18.1953 16.9492 17.5898 16.457 17.1602C15.9648 16.7227 15.2734 16.5039 14.3828 16.5039C13.5234 16.5039 12.8555 16.6875 12.3789 17.0547C11.9023 17.4141 11.6641 17.8906 11.6641 18.4844C11.6641 19.0391 11.9414 19.5039 12.4961 19.8789C13.0586 20.2539 13.8828 20.6055 14.9688 20.9336C16.9688 21.5352 18.4258 22.2812 19.3398 23.1719C20.2539 24.0625 20.7109 25.1719 20.7109 26.5C20.7109 27.9766 20.1523 29.1367 19.0352 29.9805C17.918 30.8164 16.4141 31.2344 14.5234 31.2344C13.2109 31.2344 12.0156 30.9961 10.9375 30.5195C9.85938 30.0352 9.03516 29.375 8.46484 28.5391C7.90234 27.7031 7.62109 26.7344 7.62109 25.6328H11.1484C11.1484 27.5156 12.2734 28.457 14.5234 28.457C15.3594 28.457 16.0117 28.2891 16.4805 27.9531C16.9492 27.6094 17.1836 27.1328 17.1836 26.5234ZM23.1016 31V13.9375H28.3516C29.8516 13.9375 31.1914 14.2773 32.3711 14.957C33.5586 15.6289 34.4844 16.5898 35.1484 17.8398C35.8125 19.082 36.1445 20.4961 36.1445 22.082V22.8672C36.1445 24.4531 35.8164 25.8633 35.1602 27.0977C34.5117 28.332 33.5938 29.2891 32.4062 29.9688C31.2188 30.6484 29.8789 30.9922 28.3867 31H23.1016ZM26.6172 16.7852V28.1758H28.3164C29.6914 28.1758 30.7422 27.7266 31.4688 26.8281C32.1953 25.9297 32.5664 24.6445 32.582 22.9727V22.0703C32.582 20.3359 32.2227 19.0234 31.5039 18.1328C30.7852 17.2344 29.7344 16.7852 28.3516 16.7852H26.6172Z" fill="black"/>
</svg>
