<svg width="198" height="132" viewBox="0 0 132 88" fill="none" xmlns="http://www.w3.org/2000/svg">
<line x1="7" y1="1.5" x2="125" y2="1.5" stroke="black" stroke-width="3"/>
<line x1="7" y1="86.5" x2="125" y2="86.5" stroke="black" stroke-width="3"/>
<line x1="1.5" y1="4" x2="1.5" y2="83" stroke="black" stroke-width="3"/>
<line x1="130.5" y1="4" x2="130.5" y2="83" stroke="black" stroke-width="3"/>
<path d="M21.918 33.3164C21.7852 35.1523 21.1055 36.5977 19.8789 37.6523C18.6602 38.707 17.0508 39.2344 15.0508 39.2344C12.8633 39.2344 11.1406 38.5 9.88281 37.0312C8.63281 35.5547 8.00781 33.5312 8.00781 30.9609V29.918C8.00781 28.2773 8.29688 26.832 8.875 25.582C9.45312 24.332 10.2773 23.375 11.3477 22.7109C12.4258 22.0391 13.6758 21.7031 15.0977 21.7031C17.0664 21.7031 18.6523 22.2305 19.8555 23.2852C21.0586 24.3398 21.7539 25.8203 21.9414 27.7266H18.4258C18.3398 26.625 18.0312 25.8281 17.5 25.3359C16.9766 24.8359 16.1758 24.5859 15.0977 24.5859C13.9258 24.5859 13.0469 25.0078 12.4609 25.8516C11.8828 26.6875 11.5859 27.9883 11.5703 29.7539V31.043C11.5703 32.8867 11.8477 34.2344 12.4023 35.0859C12.9648 35.9375 13.8477 36.3633 15.0508 36.3633C16.1367 36.3633 16.9453 36.1172 17.4766 35.625C18.0156 35.125 18.3242 34.3555 18.4023 33.3164H21.918ZM27.3086 27.7031C28.207 26.625 29.3359 26.0859 30.6953 26.0859C33.4453 26.0859 34.8398 27.6836 34.8789 30.8789V39H31.4922V30.9727C31.4922 30.2461 31.3359 29.7109 31.0234 29.3672C30.7109 29.0156 30.1914 28.8398 29.4648 28.8398C28.4727 28.8398 27.7539 29.2227 27.3086 29.9883V39H23.9219V21H27.3086V27.7031ZM36.9062 32.543C36.9062 31.2852 37.1484 30.1641 37.6328 29.1797C38.1172 28.1953 38.8125 27.4336 39.7188 26.8945C40.6328 26.3555 41.6914 26.0859 42.8945 26.0859C44.6055 26.0859 46 26.6094 47.0781 27.6562C48.1641 28.7031 48.7695 30.125 48.8945 31.9219L48.918 32.7891C48.918 34.7344 48.375 36.2969 47.2891 37.4766C46.2031 38.6484 44.7461 39.2344 42.918 39.2344C41.0898 39.2344 39.6289 38.6484 38.5352 37.4766C37.4492 36.3047 36.9062 34.7109 36.9062 32.6953V32.543ZM40.293 32.7891C40.293 33.9922 40.5195 34.9141 40.9727 35.5547C41.4258 36.1875 42.0742 36.5039 42.918 36.5039C43.7383 36.5039 44.3789 36.1914 44.8398 35.5664C45.3008 34.9336 45.5312 33.9258 45.5312 32.543C45.5312 31.3633 45.3008 30.4492 44.8398 29.8008C44.3789 29.1523 43.7305 28.8281 42.8945 28.8281C42.0664 28.8281 41.4258 29.1523 40.9727 29.8008C40.5195 30.4414 40.293 31.4375 40.293 32.7891ZM50.4766 32.543C50.4766 31.2852 50.7188 30.1641 51.2031 29.1797C51.6875 28.1953 52.3828 27.4336 53.2891 26.8945C54.2031 26.3555 55.2617 26.0859 56.4648 26.0859C58.1758 26.0859 59.5703 26.6094 60.6484 27.6562C61.7344 28.7031 62.3398 30.125 62.4648 31.9219L62.4883 32.7891C62.4883 34.7344 61.9453 36.2969 60.8594 37.4766C59.7734 38.6484 58.3164 39.2344 56.4883 39.2344C54.6602 39.2344 53.1992 38.6484 52.1055 37.4766C51.0195 36.3047 50.4766 34.7109 50.4766 32.6953V32.543ZM53.8633 32.7891C53.8633 33.9922 54.0898 34.9141 54.543 35.5547C54.9961 36.1875 55.6445 36.5039 56.4883 36.5039C57.3086 36.5039 57.9492 36.1914 58.4102 35.5664C58.8711 34.9336 59.1016 33.9258 59.1016 32.543C59.1016 31.3633 58.8711 30.4492 58.4102 29.8008C57.9492 29.1523 57.3008 28.8281 56.4648 28.8281C55.6367 28.8281 54.9961 29.1523 54.543 29.8008C54.0898 30.4414 53.8633 31.4375 53.8633 32.7891ZM71.4414 35.4961C71.4414 35.082 71.2344 34.7578 70.8203 34.5234C70.4141 34.2812 69.7578 34.0664 68.8516 33.8789C65.8359 33.2461 64.3281 31.9648 64.3281 30.0352C64.3281 28.9102 64.793 27.9727 65.7227 27.2227C66.6602 26.4648 67.8828 26.0859 69.3906 26.0859C71 26.0859 72.2852 26.4648 73.2461 27.2227C74.2148 27.9805 74.6992 28.9648 74.6992 30.1758H71.3125C71.3125 29.6914 71.1562 29.293 70.8438 28.9805C70.5312 28.6602 70.043 28.5 69.3789 28.5C68.8086 28.5 68.3672 28.6289 68.0547 28.8867C67.7422 29.1445 67.5859 29.4727 67.5859 29.8711C67.5859 30.2461 67.7617 30.5508 68.1133 30.7852C68.4727 31.0117 69.0742 31.2109 69.918 31.3828C70.7617 31.5469 71.4727 31.7344 72.0508 31.9453C73.8398 32.6016 74.7344 33.7383 74.7344 35.3555C74.7344 36.5117 74.2383 37.4492 73.2461 38.168C72.2539 38.8789 70.9727 39.2344 69.4023 39.2344C68.3398 39.2344 67.3945 39.0469 66.5664 38.6719C65.7461 38.2891 65.1016 37.7695 64.6328 37.1133C64.1641 36.4492 63.9297 35.7344 63.9297 34.9688H67.1406C67.1719 35.5703 67.3945 36.0312 67.8086 36.3516C68.2227 36.6719 68.7773 36.832 69.4727 36.832C70.1211 36.832 70.6094 36.7109 70.9375 36.4688C71.2734 36.2188 71.4414 35.8945 71.4414 35.4961ZM82.7617 39.2344C80.9023 39.2344 79.3867 38.6641 78.2148 37.5234C77.0508 36.3828 76.4688 34.8633 76.4688 32.9648V32.6367C76.4688 31.3633 76.7148 30.2266 77.207 29.2266C77.6992 28.2188 78.3945 27.4453 79.293 26.9062C80.1992 26.3594 81.2305 26.0859 82.3867 26.0859C84.1211 26.0859 85.4844 26.6328 86.4766 27.7266C87.4766 28.8203 87.9766 30.3711 87.9766 32.3789V33.7617H79.9023C80.0117 34.5898 80.3398 35.2539 80.8867 35.7539C81.4414 36.2539 82.1406 36.5039 82.9844 36.5039C84.2891 36.5039 85.3086 36.0312 86.043 35.0859L87.707 36.9492C87.1992 37.668 86.5117 38.2305 85.6445 38.6367C84.7773 39.0352 83.8164 39.2344 82.7617 39.2344ZM82.375 28.8281C81.7031 28.8281 81.1562 29.0547 80.7344 29.5078C80.3203 29.9609 80.0547 30.6094 79.9375 31.4531H84.6484V31.1836C84.6328 30.4336 84.4297 29.8555 84.0391 29.4492C83.6484 29.0352 83.0938 28.8281 82.375 28.8281ZM103.234 39C103.078 38.6953 102.965 38.3164 102.895 37.8633C102.074 38.7773 101.008 39.2344 99.6953 39.2344C98.4531 39.2344 97.4219 38.875 96.6016 38.1562C95.7891 37.4375 95.3828 36.5312 95.3828 35.4375C95.3828 34.0938 95.8789 33.0625 96.8711 32.3438C97.8711 31.625 99.3125 31.2617 101.195 31.2539H102.754V30.5273C102.754 29.9414 102.602 29.4727 102.297 29.1211C102 28.7695 101.527 28.5938 100.879 28.5938C100.309 28.5938 99.8594 28.7305 99.5312 29.0039C99.2109 29.2773 99.0508 29.6523 99.0508 30.1289H95.6641C95.6641 29.3945 95.8906 28.7148 96.3438 28.0898C96.7969 27.4648 97.4375 26.9766 98.2656 26.625C99.0938 26.2656 100.023 26.0859 101.055 26.0859C102.617 26.0859 103.855 26.4805 104.77 27.2695C105.691 28.0508 106.152 29.1523 106.152 30.5742V36.0703C106.16 37.2734 106.328 38.1836 106.656 38.8008V39H103.234ZM100.434 36.6445C100.934 36.6445 101.395 36.5352 101.816 36.3164C102.238 36.0898 102.551 35.7891 102.754 35.4141V33.2344H101.488C99.793 33.2344 98.8906 33.8203 98.7812 34.9922L98.7695 35.1914C98.7695 35.6133 98.918 35.9609 99.2148 36.2344C99.5117 36.5078 99.918 36.6445 100.434 36.6445ZM15.168 63.4961C15.168 63.082 14.9609 62.7578 14.5469 62.5234C14.1406 62.2812 13.4844 62.0664 12.5781 61.8789C9.5625 61.2461 8.05469 59.9648 8.05469 58.0352C8.05469 56.9102 8.51953 55.9727 9.44922 55.2227C10.3867 54.4648 11.6094 54.0859 13.1172 54.0859C14.7266 54.0859 16.0117 54.4648 16.9727 55.2227C17.9414 55.9805 18.4258 56.9648 18.4258 58.1758H15.0391C15.0391 57.6914 14.8828 57.293 14.5703 56.9805C14.2578 56.6602 13.7695 56.5 13.1055 56.5C12.5352 56.5 12.0938 56.6289 11.7812 56.8867C11.4688 57.1445 11.3125 57.4727 11.3125 57.8711C11.3125 58.2461 11.4883 58.5508 11.8398 58.7852C12.1992 59.0117 12.8008 59.2109 13.6445 59.3828C14.4883 59.5469 15.1992 59.7344 15.7773 59.9453C17.5664 60.6016 18.4609 61.7383 18.4609 63.3555C18.4609 64.5117 17.9648 65.4492 16.9727 66.168C15.9805 66.8789 14.6992 67.2344 13.1289 67.2344C12.0664 67.2344 11.1211 67.0469 10.293 66.6719C9.47266 66.2891 8.82812 65.7695 8.35938 65.1133C7.89062 64.4492 7.65625 63.7344 7.65625 62.9688H10.8672C10.8984 63.5703 11.1211 64.0312 11.5352 64.3516C11.9492 64.6719 12.5039 64.832 13.1992 64.832C13.8477 64.832 14.3359 64.7109 14.6641 64.4688C15 64.2188 15.168 63.8945 15.168 63.4961ZM24.707 51.2031V54.3203H26.875V56.8047H24.707V63.1328C24.707 63.6016 24.7969 63.9375 24.9766 64.1406C25.1562 64.3438 25.5 64.4453 26.0078 64.4453C26.3828 64.4453 26.7148 64.418 27.0039 64.3633V66.9297C26.3398 67.1328 25.6562 67.2344 24.9531 67.2344C22.5781 67.2344 21.3672 66.0352 21.3203 63.6367V56.8047H19.4688V54.3203H21.3203V51.2031H24.707ZM36.1094 67C35.9531 66.6953 35.8398 66.3164 35.7695 65.8633C34.9492 66.7773 33.8828 67.2344 32.5703 67.2344C31.3281 67.2344 30.2969 66.875 29.4766 66.1562C28.6641 65.4375 28.2578 64.5312 28.2578 63.4375C28.2578 62.0938 28.7539 61.0625 29.7461 60.3438C30.7461 59.625 32.1875 59.2617 34.0703 59.2539H35.6289V58.5273C35.6289 57.9414 35.4766 57.4727 35.1719 57.1211C34.875 56.7695 34.4023 56.5938 33.7539 56.5938C33.1836 56.5938 32.7344 56.7305 32.4062 57.0039C32.0859 57.2773 31.9258 57.6523 31.9258 58.1289H28.5391C28.5391 57.3945 28.7656 56.7148 29.2188 56.0898C29.6719 55.4648 30.3125 54.9766 31.1406 54.625C31.9688 54.2656 32.8984 54.0859 33.9297 54.0859C35.4922 54.0859 36.7305 54.4805 37.6445 55.2695C38.5664 56.0508 39.0273 57.1523 39.0273 58.5742V64.0703C39.0352 65.2734 39.2031 66.1836 39.5312 66.8008V67H36.1094ZM33.3086 64.6445C33.8086 64.6445 34.2695 64.5352 34.6914 64.3164C35.1133 64.0898 35.4258 63.7891 35.6289 63.4141V61.2344H34.3633C32.668 61.2344 31.7656 61.8203 31.6562 62.9922L31.6445 63.1914C31.6445 63.6133 31.793 63.9609 32.0898 64.2344C32.3867 64.5078 32.793 64.6445 33.3086 64.6445ZM45.6836 51.2031V54.3203H47.8516V56.8047H45.6836V63.1328C45.6836 63.6016 45.7734 63.9375 45.9531 64.1406C46.1328 64.3438 46.4766 64.4453 46.9844 64.4453C47.3594 64.4453 47.6914 64.418 47.9805 64.3633V66.9297C47.3164 67.1328 46.6328 67.2344 45.9297 67.2344C43.5547 67.2344 42.3438 66.0352 42.2969 63.6367V56.8047H40.4453V54.3203H42.2969V51.2031H45.6836ZM55.5742 67.2344C53.7148 67.2344 52.1992 66.6641 51.0273 65.5234C49.8633 64.3828 49.2812 62.8633 49.2812 60.9648V60.6367C49.2812 59.3633 49.5273 58.2266 50.0195 57.2266C50.5117 56.2188 51.207 55.4453 52.1055 54.9062C53.0117 54.3594 54.043 54.0859 55.1992 54.0859C56.9336 54.0859 58.2969 54.6328 59.2891 55.7266C60.2891 56.8203 60.7891 58.3711 60.7891 60.3789V61.7617H52.7148C52.8242 62.5898 53.1523 63.2539 53.6992 63.7539C54.2539 64.2539 54.9531 64.5039 55.7969 64.5039C57.1016 64.5039 58.1211 64.0312 58.8555 63.0859L60.5195 64.9492C60.0117 65.668 59.3242 66.2305 58.457 66.6367C57.5898 67.0352 56.6289 67.2344 55.5742 67.2344ZM55.1875 56.8281C54.5156 56.8281 53.9688 57.0547 53.5469 57.5078C53.1328 57.9609 52.8672 58.6094 52.75 59.4531H57.4609V59.1836C57.4453 58.4336 57.2422 57.8555 56.8516 57.4492C56.4609 57.0352 55.9062 56.8281 55.1875 56.8281ZM62.8984 65.3359C62.8984 64.7969 63.0781 64.3594 63.4375 64.0234C63.8047 63.6875 64.2617 63.5195 64.8086 63.5195C65.3633 63.5195 65.8203 63.6875 66.1797 64.0234C66.5469 64.3594 66.7305 64.7969 66.7305 65.3359C66.7305 65.8672 66.5508 66.3008 66.1914 66.6367C65.832 66.9648 65.3711 67.1289 64.8086 67.1289C64.2539 67.1289 63.7969 66.9648 63.4375 66.6367C63.0781 66.3008 62.8984 65.8672 62.8984 65.3359Z" fill="black"/>
</svg>
