<svg width="74" height="53" viewBox="0 0 74 53" fill="none" xmlns="http://www.w3.org/2000/svg">
<line x1="3.85271" y1="1.5" x2="68.7984" y2="1.5" stroke="black" stroke-width="3"/>
<line x1="3.85271" y1="51.5" x2="68.7984" y2="51.5" stroke="black" stroke-width="3"/>
<line x1="1.5" y1="3.58823" x2="1.5" y2="50.0588" stroke="black" stroke-width="3"/>
<line x1="72.5" y1="3.58823" x2="72.5" y2="50.0588" stroke="black" stroke-width="3"/>
<path d="M12.7021 20.6846C12.6247 21.7555 12.2282 22.5986 11.5127 23.2139C10.8018 23.8291 9.86296 24.1367 8.69629 24.1367C7.42025 24.1367 6.41536 23.7083 5.68164 22.8516C4.95247 21.9902 4.58789 20.8099 4.58789 19.3105V18.7021C4.58789 17.7451 4.75651 16.902 5.09375 16.1729C5.43099 15.4437 5.91178 14.8854 6.53613 14.498C7.16504 14.1061 7.89421 13.9102 8.72363 13.9102C9.87207 13.9102 10.7972 14.2178 11.499 14.833C12.2008 15.4482 12.6064 16.3118 12.7158 17.4238H10.665C10.6149 16.7812 10.4349 16.3164 10.125 16.0293C9.81966 15.7376 9.35254 15.5918 8.72363 15.5918C8.04004 15.5918 7.52734 15.8379 7.18555 16.3301C6.84831 16.8177 6.67513 17.5765 6.66602 18.6064V19.3584C6.66602 20.4339 6.8278 21.2201 7.15137 21.7168C7.47949 22.2135 7.99447 22.4619 8.69629 22.4619C9.32975 22.4619 9.80143 22.3184 10.1113 22.0312C10.4258 21.7396 10.6058 21.2907 10.6514 20.6846H12.7021ZM15.8467 17.4102C16.3708 16.7812 17.0293 16.4668 17.8223 16.4668C19.4264 16.4668 20.2399 17.3988 20.2627 19.2627V24H18.2871V19.3174C18.2871 18.8936 18.196 18.5814 18.0137 18.3809C17.8314 18.1758 17.5283 18.0732 17.1045 18.0732C16.5257 18.0732 16.1064 18.2965 15.8467 18.7432V24H13.8711V13.5H15.8467V17.4102ZM21.4453 20.2334C21.4453 19.4997 21.5866 18.8457 21.8691 18.2715C22.1517 17.6973 22.5573 17.2529 23.0859 16.9385C23.6191 16.624 24.2367 16.4668 24.9385 16.4668C25.9365 16.4668 26.75 16.7721 27.3789 17.3828C28.0124 17.9935 28.3656 18.8229 28.4385 19.8711L28.4521 20.377C28.4521 21.5117 28.1354 22.4232 27.502 23.1113C26.8685 23.7949 26.0186 24.1367 24.9521 24.1367C23.8857 24.1367 23.0335 23.7949 22.3955 23.1113C21.762 22.4277 21.4453 21.498 21.4453 20.3223V20.2334ZM23.4209 20.377C23.4209 21.0788 23.5531 21.6165 23.8174 21.9902C24.0817 22.3594 24.46 22.5439 24.9521 22.5439C25.4307 22.5439 25.8044 22.3617 26.0732 21.9971C26.3421 21.6279 26.4766 21.04 26.4766 20.2334C26.4766 19.5452 26.3421 19.012 26.0732 18.6338C25.8044 18.2555 25.4261 18.0664 24.9385 18.0664C24.4554 18.0664 24.0817 18.2555 23.8174 18.6338C23.5531 19.0075 23.4209 19.5885 23.4209 20.377ZM29.3613 20.2334C29.3613 19.4997 29.5026 18.8457 29.7852 18.2715C30.0677 17.6973 30.4733 17.2529 31.002 16.9385C31.5352 16.624 32.1527 16.4668 32.8545 16.4668C33.8525 16.4668 34.666 16.7721 35.2949 17.3828C35.9284 17.9935 36.2816 18.8229 36.3545 19.8711L36.3682 20.377C36.3682 21.5117 36.0514 22.4232 35.418 23.1113C34.7845 23.7949 33.9346 24.1367 32.8682 24.1367C31.8018 24.1367 30.9495 23.7949 30.3115 23.1113C29.6781 22.4277 29.3613 21.498 29.3613 20.3223V20.2334ZM31.3369 20.377C31.3369 21.0788 31.4691 21.6165 31.7334 21.9902C31.9977 22.3594 32.376 22.5439 32.8682 22.5439C33.3467 22.5439 33.7204 22.3617 33.9893 21.9971C34.2581 21.6279 34.3926 21.04 34.3926 20.2334C34.3926 19.5452 34.2581 19.012 33.9893 18.6338C33.7204 18.2555 33.3421 18.0664 32.8545 18.0664C32.3714 18.0664 31.9977 18.2555 31.7334 18.6338C31.4691 19.0075 31.3369 19.5885 31.3369 20.377ZM41.5908 21.9561C41.5908 21.7145 41.4701 21.5254 41.2285 21.3887C40.9915 21.2474 40.6087 21.1221 40.0801 21.0127C38.321 20.6436 37.4414 19.8962 37.4414 18.7705C37.4414 18.1143 37.7126 17.5674 38.2549 17.1299C38.8018 16.6878 39.515 16.4668 40.3945 16.4668C41.3333 16.4668 42.083 16.6878 42.6436 17.1299C43.2087 17.5719 43.4912 18.1462 43.4912 18.8525H41.5156C41.5156 18.57 41.4245 18.3376 41.2422 18.1553C41.0599 17.9684 40.7751 17.875 40.3877 17.875C40.055 17.875 39.7975 17.9502 39.6152 18.1006C39.4329 18.251 39.3418 18.4424 39.3418 18.6748C39.3418 18.8936 39.4443 19.0713 39.6494 19.208C39.859 19.3402 40.21 19.4564 40.7021 19.5566C41.1943 19.6523 41.609 19.7617 41.9463 19.8848C42.9899 20.2676 43.5117 20.9307 43.5117 21.874C43.5117 22.5485 43.2223 23.0954 42.6436 23.5146C42.0648 23.9294 41.3174 24.1367 40.4014 24.1367C39.7816 24.1367 39.2301 24.0273 38.7471 23.8086C38.2686 23.5853 37.8926 23.2822 37.6191 22.8994C37.3457 22.512 37.209 22.0951 37.209 21.6484H39.082C39.1003 21.9993 39.2301 22.2682 39.4717 22.4551C39.7132 22.6419 40.0368 22.7354 40.4424 22.7354C40.8206 22.7354 41.1055 22.6647 41.2969 22.5234C41.4928 22.3776 41.5908 22.1885 41.5908 21.9561ZM48.1943 24.1367C47.1097 24.1367 46.2256 23.804 45.542 23.1387C44.863 22.4733 44.5234 21.5869 44.5234 20.4795V20.2881C44.5234 19.5452 44.667 18.8822 44.9541 18.2988C45.2412 17.7109 45.6468 17.2598 46.1709 16.9453C46.6995 16.6263 47.3011 16.4668 47.9756 16.4668C48.9873 16.4668 49.7826 16.7858 50.3613 17.4238C50.9447 18.0618 51.2363 18.9665 51.2363 20.1377V20.9443H46.5264C46.5902 21.4274 46.7816 21.8148 47.1006 22.1064C47.4242 22.3981 47.832 22.5439 48.3242 22.5439C49.0853 22.5439 49.68 22.2682 50.1084 21.7168L51.0791 22.8037C50.7829 23.223 50.3818 23.5511 49.876 23.7881C49.3701 24.0205 48.8096 24.1367 48.1943 24.1367ZM47.9688 18.0664C47.5768 18.0664 47.2578 18.1986 47.0117 18.4629C46.7702 18.7272 46.6152 19.1055 46.5469 19.5977H49.2949V19.4404C49.2858 19.0029 49.1673 18.6657 48.9395 18.4287C48.7116 18.1872 48.388 18.0664 47.9688 18.0664ZM60.1367 24C60.0456 23.8223 59.9795 23.6012 59.9385 23.3369C59.46 23.8701 58.8379 24.1367 58.0723 24.1367C57.3477 24.1367 56.7461 23.9271 56.2676 23.5078C55.7936 23.0885 55.5566 22.5599 55.5566 21.9219C55.5566 21.138 55.846 20.5365 56.4248 20.1172C57.0081 19.6979 57.849 19.486 58.9473 19.4814H59.8564V19.0576C59.8564 18.7158 59.7676 18.4424 59.5898 18.2373C59.4167 18.0322 59.141 17.9297 58.7627 17.9297C58.43 17.9297 58.168 18.0094 57.9766 18.1689C57.7897 18.3285 57.6963 18.5472 57.6963 18.8252H55.7207C55.7207 18.3968 55.8529 18.0003 56.1172 17.6357C56.3815 17.2712 56.7552 16.9863 57.2383 16.7812C57.7214 16.5716 58.2637 16.4668 58.8652 16.4668C59.7767 16.4668 60.499 16.6969 61.0322 17.1572C61.57 17.613 61.8389 18.2555 61.8389 19.085V22.291C61.8434 22.9928 61.9414 23.5238 62.1328 23.8838V24H60.1367ZM58.5029 22.626C58.7946 22.626 59.0635 22.5622 59.3096 22.4346C59.5557 22.3024 59.738 22.127 59.8564 21.9082V20.6367H59.1182C58.1292 20.6367 57.6029 20.9785 57.5391 21.6621L57.5322 21.7783C57.5322 22.0244 57.6188 22.2272 57.792 22.3867C57.9652 22.5462 58.2021 22.626 58.5029 22.626ZM8.76465 37.9561C8.76465 37.7145 8.64388 37.5254 8.40234 37.3887C8.16536 37.2474 7.78255 37.1221 7.25391 37.0127C5.49479 36.6436 4.61523 35.8962 4.61523 34.7705C4.61523 34.1143 4.88639 33.5674 5.42871 33.1299C5.97559 32.6878 6.6888 32.4668 7.56836 32.4668C8.50716 32.4668 9.25684 32.6878 9.81738 33.1299C10.3825 33.5719 10.665 34.1462 10.665 34.8525H8.68945C8.68945 34.57 8.59831 34.3376 8.41602 34.1553C8.23372 33.9684 7.94889 33.875 7.56152 33.875C7.22884 33.875 6.97135 33.9502 6.78906 34.1006C6.60677 34.251 6.51562 34.4424 6.51562 34.6748C6.51562 34.8936 6.61816 35.0713 6.82324 35.208C7.03288 35.3402 7.38379 35.4564 7.87598 35.5566C8.36816 35.6523 8.78288 35.7617 9.12012 35.8848C10.1637 36.2676 10.6855 36.9307 10.6855 37.874C10.6855 38.5485 10.3962 39.0954 9.81738 39.5146C9.23861 39.9294 8.49121 40.1367 7.5752 40.1367C6.9554 40.1367 6.40397 40.0273 5.9209 39.8086C5.44238 39.5853 5.06641 39.2822 4.79297 38.8994C4.51953 38.512 4.38281 38.0951 4.38281 37.6484H6.25586C6.27409 37.9993 6.40397 38.2682 6.64551 38.4551C6.88704 38.6419 7.21061 38.7354 7.61621 38.7354C7.99447 38.7354 8.2793 38.6647 8.4707 38.5234C8.66667 38.3776 8.76465 38.1885 8.76465 37.9561ZM14.3291 30.7852V32.6035H15.5938V34.0527H14.3291V37.7441C14.3291 38.0176 14.3815 38.2135 14.4863 38.332C14.5911 38.4505 14.7917 38.5098 15.0879 38.5098C15.3066 38.5098 15.5003 38.4938 15.6689 38.4619V39.959C15.2816 40.0775 14.8828 40.1367 14.4727 40.1367C13.0872 40.1367 12.3809 39.4372 12.3535 38.0381V34.0527H11.2734V32.6035H12.3535V30.7852H14.3291ZM20.9805 40C20.8893 39.8223 20.8232 39.6012 20.7822 39.3369C20.3037 39.8701 19.6816 40.1367 18.916 40.1367C18.1914 40.1367 17.5898 39.9271 17.1113 39.5078C16.6374 39.0885 16.4004 38.5599 16.4004 37.9219C16.4004 37.138 16.6898 36.5365 17.2686 36.1172C17.8519 35.6979 18.6927 35.486 19.791 35.4814H20.7002V35.0576C20.7002 34.7158 20.6113 34.4424 20.4336 34.2373C20.2604 34.0322 19.9847 33.9297 19.6064 33.9297C19.2738 33.9297 19.0117 34.0094 18.8203 34.1689C18.6335 34.3285 18.54 34.5472 18.54 34.8252H16.5645C16.5645 34.3968 16.6966 34.0003 16.9609 33.6357C17.2253 33.2712 17.599 32.9863 18.082 32.7812C18.5651 32.5716 19.1074 32.4668 19.709 32.4668C20.6204 32.4668 21.3428 32.6969 21.876 33.1572C22.4137 33.613 22.6826 34.2555 22.6826 35.085V38.291C22.6872 38.9928 22.7852 39.5238 22.9766 39.8838V40H20.9805ZM19.3467 38.626C19.6383 38.626 19.9072 38.5622 20.1533 38.4346C20.3994 38.3024 20.5817 38.127 20.7002 37.9082V36.6367H19.9619C18.973 36.6367 18.4466 36.9785 18.3828 37.6621L18.376 37.7783C18.376 38.0244 18.4626 38.2272 18.6357 38.3867C18.8089 38.5462 19.0459 38.626 19.3467 38.626ZM26.5654 30.7852V32.6035H27.8301V34.0527H26.5654V37.7441C26.5654 38.0176 26.6178 38.2135 26.7227 38.332C26.8275 38.4505 27.028 38.5098 27.3242 38.5098C27.543 38.5098 27.7367 38.4938 27.9053 38.4619V39.959C27.5179 40.0775 27.1191 40.1367 26.709 40.1367C25.3236 40.1367 24.6172 39.4372 24.5898 38.0381V34.0527H23.5098V32.6035H24.5898V30.7852H26.5654ZM32.335 40.1367C31.2503 40.1367 30.3662 39.804 29.6826 39.1387C29.0036 38.4733 28.6641 37.5869 28.6641 36.4795V36.2881C28.6641 35.5452 28.8076 34.8822 29.0947 34.2988C29.3818 33.7109 29.7874 33.2598 30.3115 32.9453C30.8402 32.6263 31.4417 32.4668 32.1162 32.4668C33.1279 32.4668 33.9232 32.7858 34.502 33.4238C35.0853 34.0618 35.377 34.9665 35.377 36.1377V36.9443H30.667C30.7308 37.4274 30.9222 37.8148 31.2412 38.1064C31.5648 38.3981 31.9727 38.5439 32.4648 38.5439C33.2259 38.5439 33.8206 38.2682 34.249 37.7168L35.2197 38.8037C34.9235 39.223 34.5225 39.5511 34.0166 39.7881C33.5107 40.0205 32.9502 40.1367 32.335 40.1367ZM32.1094 34.0664C31.7174 34.0664 31.3984 34.1986 31.1523 34.4629C30.9108 34.7272 30.7559 35.1055 30.6875 35.5977H33.4355V35.4404C33.4264 35.0029 33.3079 34.6657 33.0801 34.4287C32.8522 34.1872 32.5286 34.0664 32.1094 34.0664ZM36.6074 39.0293C36.6074 38.7148 36.7122 38.4596 36.9219 38.2637C37.1361 38.0677 37.4027 37.9697 37.7217 37.9697C38.0452 37.9697 38.3118 38.0677 38.5215 38.2637C38.7357 38.4596 38.8428 38.7148 38.8428 39.0293C38.8428 39.3392 38.738 39.5921 38.5283 39.7881C38.3187 39.9795 38.0498 40.0752 37.7217 40.0752C37.3981 40.0752 37.1315 39.9795 36.9219 39.7881C36.7122 39.5921 36.6074 39.3392 36.6074 39.0293Z" fill="black"/>
</svg>
