<svg width="44" height="45" viewBox="0 0 44 45" fill="none" xmlns="http://www.w3.org/2000/svg">
<path d="M42.5 22.5C42.5 34.1299 33.2902 43.5 22 43.5C10.7098 43.5 1.5 34.1299 1.5 22.5C1.5 10.8701 10.7098 1.5 22 1.5C33.2902 1.5 42.5 10.8701 42.5 22.5Z" stroke="black" stroke-width="3"/>
<path d="M21.3086 16.7852H16.082V31H12.5664V16.7852H7.41016V13.9375H21.3086V16.7852ZM29.4297 19.8203L32.6289 13.9375H36.6719L31.7031 22.3984L36.8008 31H32.7109L29.4297 25.0234L26.1484 31H22.0586L27.1562 22.3984L22.1875 13.9375H26.2305L29.4297 19.8203Z" fill="black"/>
</svg>
