<svg width="44" height="45" viewBox="0 0 44 45" fill="none" xmlns="http://www.w3.org/2000/svg">
<path d="M42.5 22.5C42.5 34.1299 33.2902 43.5 22 43.5C10.7098 43.5 1.5 34.1299 1.5 22.5C1.5 10.8701 10.7098 1.5 22 1.5C33.2902 1.5 42.5 10.8701 42.5 22.5Z" stroke="black" stroke-width="3"/>
<path d="M21.1094 14.9375V26.1758C21.1094 28.043 20.5234 29.5195 19.3516 30.6055C18.1875 31.6914 16.5938 32.2344 14.5703 32.2344C12.5781 32.2344 10.9961 31.707 9.82422 30.6523C8.65234 29.5977 8.05469 28.1484 8.03125 26.3047V14.9375H11.5469V26.1992C11.5469 27.3164 11.8125 28.1328 12.3438 28.6484C12.8828 29.1562 13.625 29.4102 14.5703 29.4102C16.5469 29.4102 17.5508 28.3711 17.582 26.293V14.9375H21.1094ZM36.8359 17.7852H31.6094V32H28.0938V17.7852H22.9375V14.9375H36.8359V17.7852Z" fill="black"/>
</svg>
