<svg width="44" height="45" viewBox="0 0 44 45" fill="none" xmlns="http://www.w3.org/2000/svg">
<path d="M42.5 22.5C42.5 34.1299 33.2902 43.5 22 43.5C10.7098 43.5 1.5 34.1299 1.5 22.5C1.5 10.8701 10.7098 1.5 22 1.5C33.2902 1.5 42.5 10.8701 42.5 22.5Z" stroke="black" stroke-width="3"/>
<path d="M14.3477 26.7695L18.2148 13.9375H22.1289L16.1875 31H12.5195L6.60156 13.9375H10.5039L14.3477 26.7695ZM32.4883 27.4844H26.3242L25.1523 31H21.4141L27.7656 13.9375H31.0234L37.4102 31H33.6719L32.4883 27.4844ZM27.2734 24.6367H31.5391L29.3945 18.25L27.2734 24.6367Z" fill="black"/>
</svg>
