<svg width="44" height="45" viewBox="0 0 44 45" fill="none" xmlns="http://www.w3.org/2000/svg">
<path d="M42.5 22.5C42.5 34.1299 33.2902 43.5 22 43.5C10.7098 43.5 1.5 34.1299 1.5 22.5C1.5 10.8701 10.7098 1.5 22 1.5C33.2902 1.5 42.5 10.8701 42.5 22.5Z" stroke="black" stroke-width="3"/>
<path d="M18.4961 26.0781L20.793 13.9375H24.2969L20.5117 31H16.9727L14.1953 19.5859L11.418 31H7.87891L4.09375 13.9375H7.59766L9.90625 26.0547L12.7188 13.9375H15.6953L18.4961 26.0781ZM35.3242 27.4844H29.1602L27.9883 31H24.25L30.6016 13.9375H33.8594L40.2461 31H36.5078L35.3242 27.4844ZM30.1094 24.6367H34.375L32.2305 18.25L30.1094 24.6367Z" fill="black"/>
</svg>
