<svg width="44" height="45" viewBox="0 0 44 45" fill="none" xmlns="http://www.w3.org/2000/svg">
<path d="M42.5 22.5C42.5 34.1299 33.2902 43.5 22 43.5C10.7098 43.5 1.5 34.1299 1.5 22.5C1.5 10.8701 10.7098 1.5 22 1.5C33.2902 1.5 42.5 10.8701 42.5 22.5Z" stroke="black" stroke-width="3"/>
<path d="M18.4609 27.0781L20.7578 14.9375H24.2617L20.4766 32H16.9375L14.1602 20.5859L11.3828 32H7.84375L4.05859 14.9375H7.5625L9.87109 27.0547L12.6836 14.9375H15.6602L18.4609 27.0781ZM32.4766 27.7695L36.3438 14.9375H40.2578L34.3164 32H30.6484L24.7305 14.9375H28.6328L32.4766 27.7695Z" fill="black"/>
</svg>
