<svg width="44" height="45" viewBox="0 0 44 45" fill="none" xmlns="http://www.w3.org/2000/svg">
<path d="M42.5 22.5C42.5 34.1299 33.2902 43.5 22 43.5C10.7098 43.5 1.5 34.1299 1.5 22.5C1.5 10.8701 10.7098 1.5 22 1.5C33.2902 1.5 42.5 10.8701 42.5 22.5Z" stroke="black" stroke-width="3"/>
<path d="M18.8945 27.0781L21.1914 14.9375H24.6953L20.9102 32H17.3711L14.5938 20.5859L11.8164 32H8.27734L4.49219 14.9375H7.99609L10.3047 27.0547L13.1172 14.9375H16.0938L18.8945 27.0781ZM32.4883 22.625L36.0391 14.9375H39.8828L34.2812 25.8125V32H30.707V25.8125L25.1055 14.9375H28.9609L32.4883 22.625Z" fill="black"/>
</svg>
