<svg width="74" height="53" viewBox="0 0 74 53" fill="none" xmlns="http://www.w3.org/2000/svg">
<line x1="3.85272" y1="1.5" x2="68.7985" y2="1.5" stroke="black" stroke-width="3"/>
<line x1="3.85272" y1="51.5" x2="68.7985" y2="51.5" stroke="black" stroke-width="3"/>
<line x1="1.5" y1="3.58823" x2="1.5" y2="50.0588" stroke="black" stroke-width="3"/>
<line x1="72.5" y1="3.58823" x2="72.5" y2="50.0588" stroke="black" stroke-width="3"/>
<path d="M12.7021 20.6846C12.6247 21.7555 12.2282 22.5986 11.5127 23.2139C10.8018 23.8291 9.86296 24.1367 8.69629 24.1367C7.42025 24.1367 6.41536 23.7083 5.68164 22.8516C4.95247 21.9902 4.58789 20.8099 4.58789 19.3105V18.7021C4.58789 17.7451 4.75651 16.902 5.09375 16.1729C5.43099 15.4437 5.91178 14.8854 6.53613 14.498C7.16504 14.1061 7.89421 13.9102 8.72363 13.9102C9.87207 13.9102 10.7972 14.2178 11.499 14.833C12.2008 15.4482 12.6064 16.3118 12.7158 17.4238H10.665C10.6149 16.7812 10.4349 16.3164 10.125 16.0293C9.81966 15.7376 9.35254 15.5918 8.72363 15.5918C8.04004 15.5918 7.52734 15.8379 7.18555 16.3301C6.84831 16.8177 6.67513 17.5765 6.66602 18.6064V19.3584C6.66602 20.4339 6.8278 21.2201 7.15137 21.7168C7.47949 22.2135 7.99447 22.4619 8.69629 22.4619C9.32975 22.4619 9.80143 22.3184 10.1113 22.0312C10.4258 21.7396 10.6058 21.2907 10.6514 20.6846H12.7021ZM15.8467 17.4102C16.3708 16.7812 17.0293 16.4668 17.8223 16.4668C19.4264 16.4668 20.2399 17.3988 20.2627 19.2627V24H18.2871V19.3174C18.2871 18.8936 18.196 18.5814 18.0137 18.3809C17.8314 18.1758 17.5283 18.0732 17.1045 18.0732C16.5257 18.0732 16.1064 18.2965 15.8467 18.7432V24H13.8711V13.5H15.8467V17.4102ZM21.4453 20.2334C21.4453 19.4997 21.5866 18.8457 21.8691 18.2715C22.1517 17.6973 22.5573 17.2529 23.0859 16.9385C23.6191 16.624 24.2367 16.4668 24.9385 16.4668C25.9365 16.4668 26.75 16.7721 27.3789 17.3828C28.0124 17.9935 28.3656 18.8229 28.4385 19.8711L28.4521 20.377C28.4521 21.5117 28.1354 22.4232 27.502 23.1113C26.8685 23.7949 26.0186 24.1367 24.9521 24.1367C23.8857 24.1367 23.0335 23.7949 22.3955 23.1113C21.762 22.4277 21.4453 21.498 21.4453 20.3223V20.2334ZM23.4209 20.377C23.4209 21.0788 23.5531 21.6165 23.8174 21.9902C24.0817 22.3594 24.46 22.5439 24.9521 22.5439C25.4307 22.5439 25.8044 22.3617 26.0732 21.9971C26.3421 21.6279 26.4766 21.04 26.4766 20.2334C26.4766 19.5452 26.3421 19.012 26.0732 18.6338C25.8044 18.2555 25.4261 18.0664 24.9385 18.0664C24.4554 18.0664 24.0817 18.2555 23.8174 18.6338C23.5531 19.0075 23.4209 19.5885 23.4209 20.377ZM29.3613 20.2334C29.3613 19.4997 29.5026 18.8457 29.7852 18.2715C30.0677 17.6973 30.4733 17.2529 31.002 16.9385C31.5352 16.624 32.1527 16.4668 32.8545 16.4668C33.8525 16.4668 34.666 16.7721 35.2949 17.3828C35.9284 17.9935 36.2816 18.8229 36.3545 19.8711L36.3682 20.377C36.3682 21.5117 36.0514 22.4232 35.418 23.1113C34.7845 23.7949 33.9346 24.1367 32.8682 24.1367C31.8018 24.1367 30.9495 23.7949 30.3115 23.1113C29.6781 22.4277 29.3613 21.498 29.3613 20.3223V20.2334ZM31.3369 20.377C31.3369 21.0788 31.4691 21.6165 31.7334 21.9902C31.9977 22.3594 32.376 22.5439 32.8682 22.5439C33.3467 22.5439 33.7204 22.3617 33.9893 21.9971C34.2581 21.6279 34.3926 21.04 34.3926 20.2334C34.3926 19.5452 34.2581 19.012 33.9893 18.6338C33.7204 18.2555 33.3421 18.0664 32.8545 18.0664C32.3714 18.0664 31.9977 18.2555 31.7334 18.6338C31.4691 19.0075 31.3369 19.5885 31.3369 20.377ZM41.5908 21.9561C41.5908 21.7145 41.4701 21.5254 41.2285 21.3887C40.9915 21.2474 40.6087 21.1221 40.0801 21.0127C38.321 20.6436 37.4414 19.8962 37.4414 18.7705C37.4414 18.1143 37.7126 17.5674 38.2549 17.1299C38.8018 16.6878 39.515 16.4668 40.3945 16.4668C41.3333 16.4668 42.083 16.6878 42.6436 17.1299C43.2087 17.5719 43.4912 18.1462 43.4912 18.8525H41.5156C41.5156 18.57 41.4245 18.3376 41.2422 18.1553C41.0599 17.9684 40.7751 17.875 40.3877 17.875C40.055 17.875 39.7975 17.9502 39.6152 18.1006C39.4329 18.251 39.3418 18.4424 39.3418 18.6748C39.3418 18.8936 39.4443 19.0713 39.6494 19.208C39.859 19.3402 40.21 19.4564 40.7021 19.5566C41.1943 19.6523 41.609 19.7617 41.9463 19.8848C42.9899 20.2676 43.5117 20.9307 43.5117 21.874C43.5117 22.5485 43.2223 23.0954 42.6436 23.5146C42.0648 23.9294 41.3174 24.1367 40.4014 24.1367C39.7816 24.1367 39.2301 24.0273 38.7471 23.8086C38.2686 23.5853 37.8926 23.2822 37.6191 22.8994C37.3457 22.512 37.209 22.0951 37.209 21.6484H39.082C39.1003 21.9993 39.2301 22.2682 39.4717 22.4551C39.7132 22.6419 40.0368 22.7354 40.4424 22.7354C40.8206 22.7354 41.1055 22.6647 41.2969 22.5234C41.4928 22.3776 41.5908 22.1885 41.5908 21.9561ZM48.1943 24.1367C47.1097 24.1367 46.2256 23.804 45.542 23.1387C44.863 22.4733 44.5234 21.5869 44.5234 20.4795V20.2881C44.5234 19.5452 44.667 18.8822 44.9541 18.2988C45.2412 17.7109 45.6468 17.2598 46.1709 16.9453C46.6995 16.6263 47.3011 16.4668 47.9756 16.4668C48.9873 16.4668 49.7826 16.7858 50.3613 17.4238C50.9447 18.0618 51.2363 18.9665 51.2363 20.1377V20.9443H46.5264C46.5902 21.4274 46.7816 21.8148 47.1006 22.1064C47.4242 22.3981 47.832 22.5439 48.3242 22.5439C49.0853 22.5439 49.68 22.2682 50.1084 21.7168L51.0791 22.8037C50.7829 23.223 50.3818 23.5511 49.876 23.7881C49.3701 24.0205 48.8096 24.1367 48.1943 24.1367ZM47.9688 18.0664C47.5768 18.0664 47.2578 18.1986 47.0117 18.4629C46.7702 18.7272 46.6152 19.1055 46.5469 19.5977H49.2949V19.4404C49.2858 19.0029 49.1673 18.6657 48.9395 18.4287C48.7116 18.1872 48.388 18.0664 47.9688 18.0664ZM60.1367 24C60.0456 23.8223 59.9795 23.6012 59.9385 23.3369C59.46 23.8701 58.8379 24.1367 58.0723 24.1367C57.3477 24.1367 56.7461 23.9271 56.2676 23.5078C55.7936 23.0885 55.5566 22.5599 55.5566 21.9219C55.5566 21.138 55.846 20.5365 56.4248 20.1172C57.0081 19.6979 57.849 19.486 58.9473 19.4814H59.8564V19.0576C59.8564 18.7158 59.7676 18.4424 59.5898 18.2373C59.4167 18.0322 59.141 17.9297 58.7627 17.9297C58.43 17.9297 58.168 18.0094 57.9766 18.1689C57.7897 18.3285 57.6963 18.5472 57.6963 18.8252H55.7207C55.7207 18.3968 55.8529 18.0003 56.1172 17.6357C56.3815 17.2712 56.7552 16.9863 57.2383 16.7812C57.7214 16.5716 58.2637 16.4668 58.8652 16.4668C59.7767 16.4668 60.499 16.6969 61.0322 17.1572C61.57 17.613 61.8389 18.2555 61.8389 19.085V22.291C61.8434 22.9928 61.9414 23.5238 62.1328 23.8838V24H60.1367ZM58.5029 22.626C58.7946 22.626 59.0635 22.5622 59.3096 22.4346C59.5557 22.3024 59.738 22.127 59.8564 21.9082V20.6367H59.1182C58.1292 20.6367 57.6029 20.9785 57.5391 21.6621L57.5322 21.7783C57.5322 22.0244 57.6188 22.2272 57.792 22.3867C57.9652 22.5462 58.2021 22.626 58.5029 22.626ZM7.52051 37.2041L8.8877 32.6035H11.0068L8.0332 41.1484L7.86914 41.5381C7.42708 42.5042 6.69792 42.9873 5.68164 42.9873C5.39453 42.9873 5.10286 42.944 4.80664 42.8574V41.3604L5.10742 41.3672C5.48112 41.3672 5.75911 41.3102 5.94141 41.1963C6.12826 41.0824 6.27409 40.8932 6.37891 40.6289L6.61133 40.0205L4.02051 32.6035H6.14648L7.52051 37.2041ZM15.0947 40.1367C14.0101 40.1367 13.126 39.804 12.4424 39.1387C11.7633 38.4733 11.4238 37.5869 11.4238 36.4795V36.2881C11.4238 35.5452 11.5674 34.8822 11.8545 34.2988C12.1416 33.7109 12.5472 33.2598 13.0713 32.9453C13.5999 32.6263 14.2015 32.4668 14.876 32.4668C15.8877 32.4668 16.6829 32.7858 17.2617 33.4238C17.8451 34.0618 18.1367 34.9665 18.1367 36.1377V36.9443H13.4268C13.4906 37.4274 13.682 37.8148 14.001 38.1064C14.3245 38.3981 14.7324 38.5439 15.2246 38.5439C15.9857 38.5439 16.5804 38.2682 17.0088 37.7168L17.9795 38.8037C17.6833 39.223 17.2822 39.5511 16.7764 39.7881C16.2705 40.0205 15.71 40.1367 15.0947 40.1367ZM14.8691 34.0664C14.4772 34.0664 14.1582 34.1986 13.9121 34.4629C13.6706 34.7272 13.5156 35.1055 13.4473 35.5977H16.1953V35.4404C16.1862 35.0029 16.0677 34.6657 15.8398 34.4287C15.612 34.1872 15.2884 34.0664 14.8691 34.0664ZM23.5508 40C23.4596 39.8223 23.3936 39.6012 23.3525 39.3369C22.874 39.8701 22.252 40.1367 21.4863 40.1367C20.7617 40.1367 20.1602 39.9271 19.6816 39.5078C19.2077 39.0885 18.9707 38.5599 18.9707 37.9219C18.9707 37.138 19.2601 36.5365 19.8389 36.1172C20.4222 35.6979 21.263 35.486 22.3613 35.4814H23.2705V35.0576C23.2705 34.7158 23.1816 34.4424 23.0039 34.2373C22.8307 34.0322 22.555 33.9297 22.1768 33.9297C21.8441 33.9297 21.582 34.0094 21.3906 34.1689C21.2038 34.3285 21.1104 34.5472 21.1104 34.8252H19.1348C19.1348 34.3968 19.2669 34.0003 19.5312 33.6357C19.7956 33.2712 20.1693 32.9863 20.6523 32.7812C21.1354 32.5716 21.6777 32.4668 22.2793 32.4668C23.1908 32.4668 23.9131 32.6969 24.4463 33.1572C24.984 33.613 25.2529 34.2555 25.2529 35.085V38.291C25.2575 38.9928 25.3555 39.5238 25.5469 39.8838V40H23.5508ZM21.917 38.626C22.2087 38.626 22.4775 38.5622 22.7236 38.4346C22.9697 38.3024 23.152 38.127 23.2705 37.9082V36.6367H22.5322C21.5433 36.6367 21.0169 36.9785 20.9531 37.6621L20.9463 37.7783C20.9463 38.0244 21.0329 38.2272 21.2061 38.3867C21.3792 38.5462 21.6162 38.626 21.917 38.626ZM30.9268 34.4561C30.6579 34.4196 30.4209 34.4014 30.2158 34.4014C29.4684 34.4014 28.9785 34.6543 28.7461 35.1602V40H26.7705V32.6035H28.6367L28.6914 33.4854C29.0879 32.8063 29.637 32.4668 30.3389 32.4668C30.5576 32.4668 30.7627 32.4964 30.9541 32.5557L30.9268 34.4561ZM30.7969 39.0293C30.7969 38.7148 30.9017 38.4596 31.1113 38.2637C31.3255 38.0677 31.5921 37.9697 31.9111 37.9697C32.2347 37.9697 32.5013 38.0677 32.7109 38.2637C32.9251 38.4596 33.0322 38.7148 33.0322 39.0293C33.0322 39.3392 32.9274 39.5921 32.7178 39.7881C32.5081 39.9795 32.2393 40.0752 31.9111 40.0752C31.5876 40.0752 31.321 39.9795 31.1113 39.7881C30.9017 39.5921 30.7969 39.3392 30.7969 39.0293Z" fill="black"/>
</svg>
