<svg width="198" height="132" viewBox="0 0 132 88" fill="none" xmlns="http://www.w3.org/2000/svg">
<line x1="7" y1="1.5" x2="125" y2="1.5" stroke="black" stroke-width="3"/>
<line x1="7" y1="86.5" x2="125" y2="86.5" stroke="black" stroke-width="3"/>
<line x1="1.5" y1="4" x2="1.5" y2="83" stroke="black" stroke-width="3"/>
<line x1="130.5" y1="4" x2="130.5" y2="83" stroke="black" stroke-width="3"/>
<path d="M19.918 34.3164C19.7852 36.1523 19.1055 37.5977 17.8789 38.6523C16.6602 39.707 15.0508 40.2344 13.0508 40.2344C10.8633 40.2344 9.14062 39.5 7.88281 38.0312C6.63281 36.5547 6.00781 34.5312 6.00781 31.9609V30.918C6.00781 29.2773 6.29688 27.832 6.875 26.582C7.45312 25.332 8.27734 24.375 9.34766 23.7109C10.4258 23.0391 11.6758 22.7031 13.0977 22.7031C15.0664 22.7031 16.6523 23.2305 17.8555 24.2852C19.0586 25.3398 19.7539 26.8203 19.9414 28.7266H16.4258C16.3398 27.625 16.0312 26.8281 15.5 26.3359C14.9766 25.8359 14.1758 25.5859 13.0977 25.5859C11.9258 25.5859 11.0469 26.0078 10.4609 26.8516C9.88281 27.6875 9.58594 28.9883 9.57031 30.7539V32.043C9.57031 33.8867 9.84766 35.2344 10.4023 36.0859C10.9648 36.9375 11.8477 37.3633 13.0508 37.3633C14.1367 37.3633 14.9453 37.1172 15.4766 36.625C16.0156 36.125 16.3242 35.3555 16.4023 34.3164H19.918ZM25.3086 28.7031C26.207 27.625 27.3359 27.0859 28.6953 27.0859C31.4453 27.0859 32.8398 28.6836 32.8789 31.8789V40H29.4922V31.9727C29.4922 31.2461 29.3359 30.7109 29.0234 30.3672C28.7109 30.0156 28.1914 29.8398 27.4648 29.8398C26.4727 29.8398 25.7539 30.2227 25.3086 30.9883V40H21.9219V22H25.3086V28.7031ZM34.9062 33.543C34.9062 32.2852 35.1484 31.1641 35.6328 30.1797C36.1172 29.1953 36.8125 28.4336 37.7188 27.8945C38.6328 27.3555 39.6914 27.0859 40.8945 27.0859C42.6055 27.0859 44 27.6094 45.0781 28.6562C46.1641 29.7031 46.7695 31.125 46.8945 32.9219L46.918 33.7891C46.918 35.7344 46.375 37.2969 45.2891 38.4766C44.2031 39.6484 42.7461 40.2344 40.918 40.2344C39.0898 40.2344 37.6289 39.6484 36.5352 38.4766C35.4492 37.3047 34.9062 35.7109 34.9062 33.6953V33.543ZM38.293 33.7891C38.293 34.9922 38.5195 35.9141 38.9727 36.5547C39.4258 37.1875 40.0742 37.5039 40.918 37.5039C41.7383 37.5039 42.3789 37.1914 42.8398 36.5664C43.3008 35.9336 43.5312 34.9258 43.5312 33.543C43.5312 32.3633 43.3008 31.4492 42.8398 30.8008C42.3789 30.1523 41.7305 29.8281 40.8945 29.8281C40.0664 29.8281 39.4258 30.1523 38.9727 30.8008C38.5195 31.4414 38.293 32.4375 38.293 33.7891ZM48.4766 33.543C48.4766 32.2852 48.7188 31.1641 49.2031 30.1797C49.6875 29.1953 50.3828 28.4336 51.2891 27.8945C52.2031 27.3555 53.2617 27.0859 54.4648 27.0859C56.1758 27.0859 57.5703 27.6094 58.6484 28.6562C59.7344 29.7031 60.3398 31.125 60.4648 32.9219L60.4883 33.7891C60.4883 35.7344 59.9453 37.2969 58.8594 38.4766C57.7734 39.6484 56.3164 40.2344 54.4883 40.2344C52.6602 40.2344 51.1992 39.6484 50.1055 38.4766C49.0195 37.3047 48.4766 35.7109 48.4766 33.6953V33.543ZM51.8633 33.7891C51.8633 34.9922 52.0898 35.9141 52.543 36.5547C52.9961 37.1875 53.6445 37.5039 54.4883 37.5039C55.3086 37.5039 55.9492 37.1914 56.4102 36.5664C56.8711 35.9336 57.1016 34.9258 57.1016 33.543C57.1016 32.3633 56.8711 31.4492 56.4102 30.8008C55.9492 30.1523 55.3008 29.8281 54.4648 29.8281C53.6367 29.8281 52.9961 30.1523 52.543 30.8008C52.0898 31.4414 51.8633 32.4375 51.8633 33.7891ZM69.4414 36.4961C69.4414 36.082 69.2344 35.7578 68.8203 35.5234C68.4141 35.2812 67.7578 35.0664 66.8516 34.8789C63.8359 34.2461 62.3281 32.9648 62.3281 31.0352C62.3281 29.9102 62.793 28.9727 63.7227 28.2227C64.6602 27.4648 65.8828 27.0859 67.3906 27.0859C69 27.0859 70.2852 27.4648 71.2461 28.2227C72.2148 28.9805 72.6992 29.9648 72.6992 31.1758H69.3125C69.3125 30.6914 69.1562 30.293 68.8438 29.9805C68.5312 29.6602 68.043 29.5 67.3789 29.5C66.8086 29.5 66.3672 29.6289 66.0547 29.8867C65.7422 30.1445 65.5859 30.4727 65.5859 30.8711C65.5859 31.2461 65.7617 31.5508 66.1133 31.7852C66.4727 32.0117 67.0742 32.2109 67.918 32.3828C68.7617 32.5469 69.4727 32.7344 70.0508 32.9453C71.8398 33.6016 72.7344 34.7383 72.7344 36.3555C72.7344 37.5117 72.2383 38.4492 71.2461 39.168C70.2539 39.8789 68.9727 40.2344 67.4023 40.2344C66.3398 40.2344 65.3945 40.0469 64.5664 39.6719C63.7461 39.2891 63.1016 38.7695 62.6328 38.1133C62.1641 37.4492 61.9297 36.7344 61.9297 35.9688H65.1406C65.1719 36.5703 65.3945 37.0312 65.8086 37.3516C66.2227 37.6719 66.7773 37.832 67.4727 37.832C68.1211 37.832 68.6094 37.7109 68.9375 37.4688C69.2734 37.2188 69.4414 36.8945 69.4414 36.4961ZM80.7617 40.2344C78.9023 40.2344 77.3867 39.6641 76.2148 38.5234C75.0508 37.3828 74.4688 35.8633 74.4688 33.9648V33.6367C74.4688 32.3633 74.7148 31.2266 75.207 30.2266C75.6992 29.2188 76.3945 28.4453 77.293 27.9062C78.1992 27.3594 79.2305 27.0859 80.3867 27.0859C82.1211 27.0859 83.4844 27.6328 84.4766 28.7266C85.4766 29.8203 85.9766 31.3711 85.9766 33.3789V34.7617H77.9023C78.0117 35.5898 78.3398 36.2539 78.8867 36.7539C79.4414 37.2539 80.1406 37.5039 80.9844 37.5039C82.2891 37.5039 83.3086 37.0312 84.043 36.0859L85.707 37.9492C85.1992 38.668 84.5117 39.2305 83.6445 39.6367C82.7773 40.0352 81.8164 40.2344 80.7617 40.2344ZM80.375 29.8281C79.7031 29.8281 79.1562 30.0547 78.7344 30.5078C78.3203 30.9609 78.0547 31.6094 77.9375 32.4531H82.6484V32.1836C82.6328 31.4336 82.4297 30.8555 82.0391 30.4492C81.6484 30.0352 81.0938 29.8281 80.375 29.8281ZM101.234 40C101.078 39.6953 100.965 39.3164 100.895 38.8633C100.074 39.7773 99.0078 40.2344 97.6953 40.2344C96.4531 40.2344 95.4219 39.875 94.6016 39.1562C93.7891 38.4375 93.3828 37.5312 93.3828 36.4375C93.3828 35.0938 93.8789 34.0625 94.8711 33.3438C95.8711 32.625 97.3125 32.2617 99.1953 32.2539H100.754V31.5273C100.754 30.9414 100.602 30.4727 100.297 30.1211C100 29.7695 99.5273 29.5938 98.8789 29.5938C98.3086 29.5938 97.8594 29.7305 97.5312 30.0039C97.2109 30.2773 97.0508 30.6523 97.0508 31.1289H93.6641C93.6641 30.3945 93.8906 29.7148 94.3438 29.0898C94.7969 28.4648 95.4375 27.9766 96.2656 27.625C97.0938 27.2656 98.0234 27.0859 99.0547 27.0859C100.617 27.0859 101.855 27.4805 102.77 28.2695C103.691 29.0508 104.152 30.1523 104.152 31.5742V37.0703C104.16 38.2734 104.328 39.1836 104.656 39.8008V40H101.234ZM98.4336 37.6445C98.9336 37.6445 99.3945 37.5352 99.8164 37.3164C100.238 37.0898 100.551 36.7891 100.754 36.4141V34.2344H99.4883C97.793 34.2344 96.8906 34.8203 96.7812 35.9922L96.7695 36.1914C96.7695 36.6133 96.918 36.9609 97.2148 37.2344C97.5117 37.5078 97.918 37.6445 98.4336 37.6445ZM11.0352 63.207L13.3789 55.3203H17.0117L11.9141 69.9688L11.6328 70.6367C10.875 72.293 9.625 73.1211 7.88281 73.1211C7.39062 73.1211 6.89062 73.0469 6.38281 72.8984V70.332L6.89844 70.3438C7.53906 70.3438 8.01562 70.2461 8.32812 70.0508C8.64844 69.8555 8.89844 69.5312 9.07812 69.0781L9.47656 68.0352L5.03516 55.3203H8.67969L11.0352 63.207ZM24.0195 68.2344C22.1602 68.2344 20.6445 67.6641 19.4727 66.5234C18.3086 65.3828 17.7266 63.8633 17.7266 61.9648V61.6367C17.7266 60.3633 17.9727 59.2266 18.4648 58.2266C18.957 57.2188 19.6523 56.4453 20.5508 55.9062C21.457 55.3594 22.4883 55.0859 23.6445 55.0859C25.3789 55.0859 26.7422 55.6328 27.7344 56.7266C28.7344 57.8203 29.2344 59.3711 29.2344 61.3789V62.7617H21.1602C21.2695 63.5898 21.5977 64.2539 22.1445 64.7539C22.6992 65.2539 23.3984 65.5039 24.2422 65.5039C25.5469 65.5039 26.5664 65.0312 27.3008 64.0859L28.9648 65.9492C28.457 66.668 27.7695 67.2305 26.9023 67.6367C26.0352 68.0352 25.0742 68.2344 24.0195 68.2344ZM23.6328 57.8281C22.9609 57.8281 22.4141 58.0547 21.9922 58.5078C21.5781 58.9609 21.3125 59.6094 21.1953 60.4531H25.9062V60.1836C25.8906 59.4336 25.6875 58.8555 25.2969 58.4492C24.9062 58.0352 24.3516 57.8281 23.6328 57.8281ZM38.5156 68C38.3594 67.6953 38.2461 67.3164 38.1758 66.8633C37.3555 67.7773 36.2891 68.2344 34.9766 68.2344C33.7344 68.2344 32.7031 67.875 31.8828 67.1562C31.0703 66.4375 30.6641 65.5312 30.6641 64.4375C30.6641 63.0938 31.1602 62.0625 32.1523 61.3438C33.1523 60.625 34.5938 60.2617 36.4766 60.2539H38.0352V59.5273C38.0352 58.9414 37.8828 58.4727 37.5781 58.1211C37.2812 57.7695 36.8086 57.5938 36.1602 57.5938C35.5898 57.5938 35.1406 57.7305 34.8125 58.0039C34.4922 58.2773 34.332 58.6523 34.332 59.1289H30.9453C30.9453 58.3945 31.1719 57.7148 31.625 57.0898C32.0781 56.4648 32.7188 55.9766 33.5469 55.625C34.375 55.2656 35.3047 55.0859 36.3359 55.0859C37.8984 55.0859 39.1367 55.4805 40.0508 56.2695C40.9727 57.0508 41.4336 58.1523 41.4336 59.5742V65.0703C41.4414 66.2734 41.6094 67.1836 41.9375 67.8008V68H38.5156ZM35.7148 65.6445C36.2148 65.6445 36.6758 65.5352 37.0977 65.3164C37.5195 65.0898 37.832 64.7891 38.0352 64.4141V62.2344H36.7695C35.0742 62.2344 34.1719 62.8203 34.0625 63.9922L34.0508 64.1914C34.0508 64.6133 34.1992 64.9609 34.4961 65.2344C34.793 65.5078 35.1992 65.6445 35.7148 65.6445ZM51.1602 58.4961C50.6992 58.4336 50.293 58.4023 49.9414 58.4023C48.6602 58.4023 47.8203 58.8359 47.4219 59.7031V68H44.0352V55.3203H47.2344L47.3281 56.832C48.0078 55.668 48.9492 55.0859 50.1523 55.0859C50.5273 55.0859 50.8789 55.1367 51.207 55.2383L51.1602 58.4961ZM50.9375 66.3359C50.9375 65.7969 51.1172 65.3594 51.4766 65.0234C51.8438 64.6875 52.3008 64.5195 52.8477 64.5195C53.4023 64.5195 53.8594 64.6875 54.2188 65.0234C54.5859 65.3594 54.7695 65.7969 54.7695 66.3359C54.7695 66.8672 54.5898 67.3008 54.2305 67.6367C53.8711 67.9648 53.4102 68.1289 52.8477 68.1289C52.293 68.1289 51.8359 67.9648 51.4766 67.6367C51.1172 67.3008 50.9375 66.8672 50.9375 66.3359Z" fill="black"/>
</svg>
